<svg xmlns="http://www.w3.org/2000/svg" xmlns:xlink="http://www.w3.org/1999/xlink" width="1396" height="640" viewBox="0 0 1396 640">
  <metadata><?xpacket begin="﻿" id="W5M0MpCehiHzreSzNTczkc9d"?>
<x:xmpmeta xmlns:x="adobe:ns:meta/" x:xmptk="Adobe XMP Core 5.6-c138 79.159824, 2016/09/14-01:09:01        ">
   <rdf:RDF xmlns:rdf="http://www.w3.org/1999/02/22-rdf-syntax-ns#">
      <rdf:Description rdf:about=""/>
   </rdf:RDF>
</x:xmpmeta>
                                                                                                    
                                                                                                    
                                                                                                    
                                                                                                    
                                                                                                    
                                                                                                    
                                                                                                    
                                                                                                    
                                                                                                    
                                                                                                    
                                                                                                    
                                                                                                    
                                                                                                    
                                                                                                    
                                                                                                    
                                                                                                    
                                                                                                    
                                                                                                    
                                                                                                    
                                                                                                    
                           
<?xpacket end="w"?></metadata>
<defs>
    <style>
      .cls-1, .cls-2 {
        fill: #fff;
        fill-rule: evenodd;
      }

      .cls-2 {
        filter: url(#filter);
      }
    </style>
    <filter id="filter" x="0" y="204.531" width="1328" height="182.469" filterUnits="userSpaceOnUse">
      <feOffset result="offset" dy="5" in="SourceAlpha"/>
      <feGaussianBlur result="blur" stdDeviation="2.236"/>
      <feFlood result="flood" flood-color="#221f1f" flood-opacity="0.1"/>
      <feComposite result="composite" operator="in" in2="blur"/>
      <feBlend result="blend" in="SourceGraphic"/>
    </filter>
  </defs>
  <path id="At_Creative_Communications_we_have_design_at_the_heart_of_ever" data-name="At Creative Communications, we have design at the heart of ever" class="cls-1" d="M24.109,466.074h2.473L16.437,443.882H14.122L3.977,466.074H6.419l2.663-5.929H21.446ZM9.938,458.243l5.326-11.92,5.326,11.92H9.938Zm27.359,5.2a3.723,3.723,0,0,1-2.473.856c-1.87,0-2.885-1.077-2.885-3.043V451.3h5.072v-1.9H31.939v-3.646H29.688V449.4h-2.98v1.9h2.98v10.082c0,3.075,1.744,4.85,4.882,4.85a5.358,5.358,0,0,0,3.519-1.173Zm22.667,2.822A10.794,10.794,0,0,0,68.111,463l-1.49-1.49a8.707,8.707,0,0,1-6.563,2.663,9.2,9.2,0,1,1,0-18.388,8.8,8.8,0,0,1,6.563,2.631l1.49-1.49A10.744,10.744,0,0,0,60,443.692c-6.689,0-11.635,4.787-11.635,11.286S53.306,466.264,59.964,466.264Zm14.519-13.6V449.4H72.327v16.676h2.251v-8.5c0-3.931,2.124-6.15,5.611-6.15,0.159,0,.349.032,0.539,0.032v-2.188C77.653,449.271,75.529,450.444,74.483,452.663Zm24.379,5.073c0-5.009-3.392-8.465-8.084-8.465s-8.148,3.519-8.148,8.465,3.551,8.5,8.75,8.5a8.209,8.209,0,0,0,6.436-2.726l-1.268-1.458a6.574,6.574,0,0,1-5.1,2.187c-3.646,0-6.309-2.314-6.562-5.8H98.831C98.831,458.18,98.862,457.926,98.862,457.736Zm-8.084-6.531a5.8,5.8,0,0,1,5.928,5.548H84.881A5.793,5.793,0,0,1,90.778,451.205Zm17.721-1.934a10.591,10.591,0,0,0-6.784,2.251l1.014,1.68a8.5,8.5,0,0,1,5.548-1.965c3.107,0,4.724,1.553,4.724,4.407v1.014h-5.294c-4.787,0-6.436,2.156-6.436,4.724,0,2.885,2.314,4.85,6.087,4.85,2.758,0,4.724-1.046,5.738-2.758v2.6h2.156V455.739C115.252,451.427,112.811,449.271,108.5,449.271Zm-0.792,15.186c-2.663,0-4.217-1.2-4.217-3.139,0-1.712,1.046-2.98,4.28-2.98H113v2.727A5.336,5.336,0,0,1,107.707,464.457Zm21.335-1.015a3.722,3.722,0,0,1-2.472.856c-1.871,0-2.885-1.077-2.885-3.043V451.3h5.072v-1.9h-5.072v-3.646h-2.251V449.4h-2.98v1.9h2.98v10.082c0,3.075,1.743,4.85,4.882,4.85a5.358,5.358,0,0,0,3.519-1.173Zm5.706-17.69A1.618,1.618,0,0,0,136.4,444.1a1.6,1.6,0,0,0-1.649-1.554A1.6,1.6,0,1,0,134.748,445.752Zm-1.141,20.322h2.251V449.4h-2.251v16.676Zm20-16.676L147.3,463.6l-6.245-14.2h-2.346l7.387,16.676h2.314l7.419-16.676h-2.22Zm19.148,8.338c0-5.009-3.392-8.465-8.084-8.465s-8.148,3.519-8.148,8.465,3.551,8.5,8.75,8.5a8.209,8.209,0,0,0,6.436-2.726l-1.268-1.458a6.573,6.573,0,0,1-5.1,2.187c-3.646,0-6.309-2.314-6.563-5.8h13.95C172.728,458.18,172.759,457.926,172.759,457.736Zm-8.084-6.531a5.8,5.8,0,0,1,5.929,5.548H158.778A5.793,5.793,0,0,1,164.675,451.205Zm30.466,15.059A10.792,10.792,0,0,0,203.288,463l-1.49-1.49a8.706,8.706,0,0,1-6.562,2.663,9.2,9.2,0,1,1,0-18.388,8.8,8.8,0,0,1,6.562,2.631l1.49-1.49a10.743,10.743,0,0,0-8.116-3.233c-6.689,0-11.635,4.787-11.635,11.286S188.483,466.264,195.141,466.264Zm18.45-.032a8.481,8.481,0,1,0-8.5-8.5A8.2,8.2,0,0,0,213.591,466.232Zm0-2c-3.551,0-6.214-2.6-6.214-6.5s2.663-6.5,6.214-6.5,6.182,2.6,6.182,6.5S217.142,464.235,213.591,464.235Zm33.541-14.964a7.262,7.262,0,0,0-6.594,3.519c-1.014-2.346-3.17-3.519-5.928-3.519a6.743,6.743,0,0,0-6.119,3.171V449.4h-2.156v16.676h2.251v-8.75c0-3.805,2.188-6.024,5.58-6.024,3.043,0,4.819,1.807,4.819,5.326v9.448h2.251v-8.75c0-3.805,2.156-6.024,5.579-6.024,3.012,0,4.788,1.807,4.788,5.326v9.448h2.25V456.4C253.853,451.617,251.19,449.271,247.132,449.271Zm33.319,0a7.261,7.261,0,0,0-6.594,3.519c-1.014-2.346-3.17-3.519-5.928-3.519a6.743,6.743,0,0,0-6.119,3.171V449.4h-2.156v16.676H261.9v-8.75c0-3.805,2.188-6.024,5.58-6.024,3.043,0,4.819,1.807,4.819,5.326v9.448h2.251v-8.75c0-3.805,2.155-6.024,5.579-6.024,3.012,0,4.787,1.807,4.787,5.326v9.448h2.251V456.4C287.172,451.617,284.509,449.271,280.451,449.271Zm25.3,0.127v8.75c0,3.8-2.187,6.055-5.675,6.055-3.17,0-5.009-1.807-5.009-5.357V449.4h-2.251v9.669c0,4.788,2.79,7.165,7.039,7.165a6.632,6.632,0,0,0,5.991-3.2v3.044H308V449.4h-2.251Zm16.739-.127a7.009,7.009,0,0,0-6.341,3.2V449.4h-2.156v16.676h2.251v-8.75c0-3.805,2.251-6.024,5.833-6.024,3.171,0,5.01,1.807,5.01,5.326v9.448h2.25V456.4C329.335,451.617,326.546,449.271,322.488,449.271Zm13.79-3.519a1.617,1.617,0,0,0,1.648-1.648,1.6,1.6,0,0,0-1.648-1.554A1.6,1.6,0,1,0,336.278,445.752Zm-1.142,20.322h2.251V449.4h-2.251v16.676Zm15.122,0.158a7.35,7.35,0,0,0,6.531-3.3l-1.68-1.141a5.641,5.641,0,0,1-4.851,2.441,6.5,6.5,0,0,1,0-13,5.668,5.668,0,0,1,4.851,2.473l1.68-1.142a7.283,7.283,0,0,0-6.531-3.3A8.481,8.481,0,1,0,350.258,466.232Zm16.453-16.961a10.591,10.591,0,0,0-6.784,2.251l1.015,1.68a8.5,8.5,0,0,1,5.548-1.965c3.106,0,4.723,1.553,4.723,4.407v1.014h-5.294c-4.787,0-6.436,2.156-6.436,4.724,0,2.885,2.315,4.85,6.087,4.85,2.758,0,4.724-1.046,5.738-2.758v2.6h2.156V455.739C373.464,451.427,371.023,449.271,366.711,449.271Zm-0.792,15.186c-2.663,0-4.217-1.2-4.217-3.139,0-1.712,1.047-2.98,4.28-2.98h5.231v2.727A5.335,5.335,0,0,1,365.919,464.457Zm21.335-1.015a3.722,3.722,0,0,1-2.472.856c-1.871,0-2.885-1.077-2.885-3.043V451.3h5.072v-1.9H381.9v-3.646h-2.251V449.4h-2.98v1.9h2.98v10.082c0,3.075,1.743,4.85,4.882,4.85a5.358,5.358,0,0,0,3.519-1.173Zm5.706-17.69a1.617,1.617,0,0,0,1.649-1.648,1.6,1.6,0,0,0-1.649-1.554A1.6,1.6,0,1,0,392.96,445.752Zm-1.141,20.322h2.251V449.4h-2.251v16.676Zm15.027,0.158a8.481,8.481,0,1,0-8.5-8.5A8.2,8.2,0,0,0,406.846,466.232Zm0-2c-3.551,0-6.214-2.6-6.214-6.5s2.663-6.5,6.214-6.5,6.182,2.6,6.182,6.5S410.4,464.235,406.846,464.235Zm21.241-14.964a7.009,7.009,0,0,0-6.341,3.2V449.4H419.59v16.676h2.251v-8.75c0-3.805,2.251-6.024,5.834-6.024,3.17,0,5.009,1.807,5.009,5.326v9.448h2.25V456.4C434.934,451.617,432.145,449.271,428.087,449.271Zm17.118,16.961c4.344,0,6.88-1.87,6.88-4.755,0-6.4-10.811-3.012-10.811-7.514,0-1.585,1.332-2.758,4.344-2.758a8.542,8.542,0,0,1,4.913,1.427l0.983-1.807a11.3,11.3,0,0,0-5.9-1.554c-4.249,0-6.595,2.029-6.595,4.756,0,6.594,10.811,3.17,10.811,7.513,0,1.649-1.3,2.727-4.47,2.727a10.077,10.077,0,0,1-5.929-1.871l-1.014,1.776A11.139,11.139,0,0,0,445.205,466.232Zm10.969-3.455a1.659,1.659,0,0,0-1.68,1.712,1.6,1.6,0,0,0,1.141,1.616l-1.078,4.6h1.522l1.332-4.375a5.167,5.167,0,0,0,.444-1.838A1.659,1.659,0,0,0,456.174,462.777ZM492.727,449.4l-5.294,14.171L482.106,449.4h-1.933l-5.358,14.171L469.584,449.4h-2.156l6.277,16.676h2.124l5.263-13.664,5.263,13.664h2.124l6.309-16.676h-2.061Zm19.211,8.338c0-5.009-3.392-8.465-8.084-8.465s-8.148,3.519-8.148,8.465,3.551,8.5,8.75,8.5a8.209,8.209,0,0,0,6.436-2.726l-1.268-1.458a6.573,6.573,0,0,1-5.1,2.187c-3.646,0-6.309-2.314-6.563-5.8h13.95C511.907,458.18,511.938,457.926,511.938,457.736Zm-8.084-6.531a5.8,5.8,0,0,1,5.929,5.548H497.957A5.793,5.793,0,0,1,503.854,451.205Zm28.849-1.934a7.048,7.048,0,0,0-6.246,3.044V442.55h-2.251v23.524h2.251v-8.75c0-3.805,2.251-6.024,5.834-6.024,3.17,0,5.009,1.807,5.009,5.326v9.448h2.251V456.4C539.551,451.617,536.761,449.271,532.7,449.271Zm18.482,0a10.594,10.594,0,0,0-6.785,2.251l1.015,1.68a8.5,8.5,0,0,1,5.548-1.965c3.107,0,4.723,1.553,4.723,4.407v1.014h-5.294c-4.787,0-6.436,2.156-6.436,4.724,0,2.885,2.315,4.85,6.087,4.85,2.758,0,4.724-1.046,5.739-2.758v2.6h2.155V455.739C557.937,451.427,555.5,449.271,551.185,449.271Zm-0.793,15.186c-2.663,0-4.216-1.2-4.216-3.139,0-1.712,1.046-2.98,4.279-2.98h5.231v2.727A5.335,5.335,0,0,1,550.392,464.457ZM575.215,449.4l-6.309,14.2-6.245-14.2h-2.346l7.387,16.676h2.314l7.418-16.676h-2.219Zm19.148,8.338c0-5.009-3.392-8.465-8.084-8.465s-8.148,3.519-8.148,8.465,3.551,8.5,8.75,8.5a8.209,8.209,0,0,0,6.436-2.726l-1.268-1.458a6.573,6.573,0,0,1-5.1,2.187c-3.646,0-6.309-2.314-6.563-5.8h13.95C594.332,458.18,594.363,457.926,594.363,457.736Zm-8.084-6.531a5.8,5.8,0,0,1,5.928,5.548H580.382A5.793,5.793,0,0,1,586.279,451.205ZM619.6,442.55v10.018a7.286,7.286,0,0,0-6.341-3.3,8.482,8.482,0,0,0,0,16.961,7.223,7.223,0,0,0,6.436-3.455v3.3h2.156V442.55H619.6Zm-6.151,21.685c-3.55,0-6.213-2.6-6.213-6.5s2.663-6.5,6.213-6.5c3.519,0,6.182,2.6,6.182,6.5S616.966,464.235,613.447,464.235Zm28.913-6.5c0-5.009-3.392-8.465-8.084-8.465s-8.148,3.519-8.148,8.465,3.551,8.5,8.75,8.5a8.212,8.212,0,0,0,6.436-2.726l-1.269-1.458a6.573,6.573,0,0,1-5.1,2.187c-3.646,0-6.309-2.314-6.562-5.8h13.949C642.328,458.18,642.36,457.926,642.36,457.736Zm-8.084-6.531a5.8,5.8,0,0,1,5.928,5.548H628.379A5.792,5.792,0,0,1,634.276,451.205Zm16.833,15.027c4.343,0,6.88-1.87,6.88-4.755,0-6.4-10.811-3.012-10.811-7.514,0-1.585,1.331-2.758,4.343-2.758a8.543,8.543,0,0,1,4.914,1.427l0.983-1.807a11.3,11.3,0,0,0-5.9-1.554c-4.248,0-6.594,2.029-6.594,4.756,0,6.594,10.811,3.17,10.811,7.513,0,1.649-1.3,2.727-4.47,2.727a10.077,10.077,0,0,1-5.929-1.871l-1.014,1.776A11.139,11.139,0,0,0,651.109,466.232Zm11.857-20.48a1.617,1.617,0,0,0,1.648-1.648,1.6,1.6,0,0,0-1.648-1.554A1.6,1.6,0,1,0,662.966,445.752Zm-1.142,20.322h2.251V449.4h-2.251v16.676Zm21.5-16.676v3.2a7.528,7.528,0,0,0-6.595-3.329c-4.755,0-8.369,3.266-8.369,8.053s3.614,8.116,8.369,8.116a7.506,7.506,0,0,0,6.5-3.234v2.124c0,4.122-1.934,6.055-6.151,6.055a9.926,9.926,0,0,1-6.562-2.282l-1.142,1.712c1.744,1.648,4.724,2.568,7.768,2.568,5.516,0,8.337-2.6,8.337-8.338V449.4h-2.155Zm-6.373,14.044a6.106,6.106,0,1,1,0-12.2c3.678,0,6.341,2.473,6.341,6.087A5.987,5.987,0,0,1,676.946,463.442Zm23.016-14.171a7.009,7.009,0,0,0-6.341,3.2V449.4h-2.155v16.676h2.25v-8.75c0-3.805,2.251-6.024,5.834-6.024,3.17,0,5.009,1.807,5.009,5.326v9.448h2.251V456.4C706.81,451.617,704.02,449.271,699.962,449.271Zm26.471,0a10.592,10.592,0,0,0-6.785,2.251l1.015,1.68a8.5,8.5,0,0,1,5.548-1.965c3.107,0,4.723,1.553,4.723,4.407v1.014H725.64c-4.787,0-6.436,2.156-6.436,4.724,0,2.885,2.315,4.85,6.087,4.85,2.758,0,4.724-1.046,5.739-2.758v2.6h2.155V455.739C733.185,451.427,730.744,449.271,726.433,449.271Zm-0.793,15.186c-2.663,0-4.216-1.2-4.216-3.139,0-1.712,1.046-2.98,4.279-2.98h5.231v2.727A5.335,5.335,0,0,1,725.64,464.457Zm21.336-1.015a3.724,3.724,0,0,1-2.473.856c-1.871,0-2.885-1.077-2.885-3.043V451.3h5.072v-1.9h-5.072v-3.646h-2.251V449.4h-2.98v1.9h2.98v10.082c0,3.075,1.744,4.85,4.882,4.85a5.356,5.356,0,0,0,3.519-1.173Zm20.542,0a3.722,3.722,0,0,1-2.473.856c-1.87,0-2.885-1.077-2.885-3.043V451.3h5.073v-1.9H762.16v-3.646h-2.251V449.4h-2.98v1.9h2.98v10.082c0,3.075,1.744,4.85,4.883,4.85a5.358,5.358,0,0,0,3.519-1.173Zm13.061-14.171a7.047,7.047,0,0,0-6.245,3.044V442.55h-2.251v23.524h2.251v-8.75c0-3.805,2.251-6.024,5.833-6.024,3.17,0,5.009,1.807,5.009,5.326v9.448h2.251V456.4C787.427,451.617,784.637,449.271,780.579,449.271Zm27.264,8.465c0-5.009-3.392-8.465-8.084-8.465s-8.148,3.519-8.148,8.465,3.551,8.5,8.75,8.5a8.211,8.211,0,0,0,6.436-2.726l-1.269-1.458a6.573,6.573,0,0,1-5.1,2.187c-3.645,0-6.309-2.314-6.562-5.8h13.949C807.811,458.18,807.843,457.926,807.843,457.736Zm-8.084-6.531a5.8,5.8,0,0,1,5.928,5.548H793.862A5.792,5.792,0,0,1,799.759,451.205Zm28.848-1.934a7.047,7.047,0,0,0-6.245,3.044V442.55h-2.251v23.524h2.251v-8.75c0-3.805,2.251-6.024,5.833-6.024,3.17,0,5.009,1.807,5.009,5.326v9.448h2.251V456.4C835.455,451.617,832.665,449.271,828.607,449.271Zm27.264,8.465c0-5.009-3.392-8.465-8.084-8.465s-8.148,3.519-8.148,8.465,3.551,8.5,8.75,8.5a8.211,8.211,0,0,0,6.436-2.726l-1.269-1.458a6.573,6.573,0,0,1-5.1,2.187c-3.646,0-6.309-2.314-6.562-5.8h13.949C855.839,458.18,855.871,457.926,855.871,457.736Zm-8.084-6.531a5.8,5.8,0,0,1,5.928,5.548H841.89A5.792,5.792,0,0,1,847.787,451.205Zm17.721-1.934a10.594,10.594,0,0,0-6.785,2.251l1.015,1.68a8.5,8.5,0,0,1,5.548-1.965c3.107,0,4.724,1.553,4.724,4.407v1.014h-5.295c-4.787,0-6.435,2.156-6.435,4.724,0,2.885,2.314,4.85,6.086,4.85,2.759,0,4.724-1.046,5.739-2.758v2.6h2.155V455.739C872.26,451.427,869.819,449.271,865.508,449.271Zm-0.793,15.186c-2.663,0-4.216-1.2-4.216-3.139,0-1.712,1.046-2.98,4.28-2.98h5.231v2.727A5.337,5.337,0,0,1,864.715,464.457Zm15.5-11.794V449.4h-2.155v16.676h2.251v-8.5c0-3.931,2.124-6.15,5.611-6.15,0.159,0,.349.032,0.539,0.032v-2.188C883.388,449.271,881.264,450.444,880.217,452.663Zm18.7,10.779a3.722,3.722,0,0,1-2.472.856c-1.871,0-2.885-1.077-2.885-3.043V451.3h5.072v-1.9h-5.072v-3.646h-2.251V449.4h-2.98v1.9h2.98v10.082c0,3.075,1.743,4.85,4.882,4.85a5.358,5.358,0,0,0,3.519-1.173Zm19.37,2.79a8.481,8.481,0,1,0-8.5-8.5A8.2,8.2,0,0,0,918.291,466.232Zm0-2c-3.551,0-6.214-2.6-6.214-6.5s2.663-6.5,6.214-6.5,6.182,2.6,6.182,6.5S921.842,464.235,918.291,464.235Zm18.261-19.941a3.81,3.81,0,0,1,2.472.824l0.761-1.68a5.28,5.28,0,0,0-3.329-1.046c-3.265,0-5.04,1.965-5.04,4.945V449.4h-2.98v1.9h2.98v14.774h2.251V451.3h5.072v-1.9H933.6v-1.965C933.6,445.372,934.618,444.294,936.552,444.294Zm27.453,13.442c0-5.009-3.392-8.465-8.084-8.465s-8.147,3.519-8.147,8.465,3.55,8.5,8.75,8.5a8.208,8.208,0,0,0,6.435-2.726l-1.268-1.458a6.573,6.573,0,0,1-5.1,2.187c-3.646,0-6.309-2.314-6.563-5.8h13.95C963.974,458.18,964.005,457.926,964.005,457.736Zm-8.084-6.531a5.8,5.8,0,0,1,5.929,5.548H950.024A5.794,5.794,0,0,1,955.921,451.205Zm23.84-1.807-6.309,14.2-6.245-14.2h-2.346l7.387,16.676h2.314L981.98,449.4h-2.219Zm19.148,8.338c0-5.009-3.392-8.465-8.084-8.465s-8.148,3.519-8.148,8.465,3.551,8.5,8.75,8.5a8.209,8.209,0,0,0,6.436-2.726l-1.268-1.458a6.573,6.573,0,0,1-5.1,2.187c-3.646,0-6.309-2.314-6.563-5.8h13.95C998.878,458.18,998.909,457.926,998.909,457.736Zm-8.084-6.531a5.8,5.8,0,0,1,5.928,5.548H984.928A5.793,5.793,0,0,1,990.825,451.205Zm14.515,1.458V449.4h-2.15v16.676h2.25v-8.5c0-3.931,2.12-6.15,5.61-6.15,0.16,0,.35.032,0.54,0.032v-2.188C1008.51,449.271,1006.39,450.444,1005.34,452.663Zm22.51-3.265-6.27,14.171L1015.3,449.4h-2.35l7.45,16.644-0.73,1.617c-0.95,2.092-1.96,2.79-3.45,2.79a4.181,4.181,0,0,1-3.05-1.268l-1.04,1.68a5.7,5.7,0,0,0,4.06,1.522c2.37,0,4.15-1.047,5.54-4.312l8.34-18.673h-2.22Zm17.53,16.834c4.35,0,6.88-1.87,6.88-4.755,0-6.4-10.81-3.012-10.81-7.514,0-1.585,1.33-2.758,4.35-2.758a8.54,8.54,0,0,1,4.91,1.427l0.98-1.807a11.279,11.279,0,0,0-5.89-1.554c-4.25,0-6.6,2.029-6.6,4.756,0,6.594,10.81,3.17,10.81,7.513,0,1.649-1.3,2.727-4.47,2.727a10.114,10.114,0,0,1-5.93-1.871l-1.01,1.776A11.137,11.137,0,0,0,1045.38,466.232Zm17.53,0a8.481,8.481,0,1,0-8.49-8.5A8.2,8.2,0,0,0,1062.91,466.232Zm0-2c-3.55,0-6.21-2.6-6.21-6.5s2.66-6.5,6.21-6.5,6.19,2.6,6.19,6.5S1066.47,464.235,1062.91,464.235Zm12.75,1.839h2.25V442.55h-2.25v23.524Zm20.99-16.676v8.75c0,3.8-2.19,6.055-5.68,6.055-3.17,0-5.01-1.807-5.01-5.357V449.4h-2.25v9.669c0,4.788,2.79,7.165,7.04,7.165a6.63,6.63,0,0,0,5.99-3.2v3.044h2.16V449.4h-2.25Zm16.23,14.044a3.752,3.752,0,0,1-2.48.856c-1.87,0-2.88-1.077-2.88-3.043V451.3h5.07v-1.9h-5.07v-3.646h-2.25V449.4h-2.98v1.9h2.98v10.082c0,3.075,1.74,4.85,4.88,4.85a5.365,5.365,0,0,0,3.52-1.173Zm5.7-17.69a1.619,1.619,0,0,0,1.65-1.648,1.6,1.6,0,0,0-1.65-1.554A1.6,1.6,0,1,0,1118.58,445.752Zm-1.14,20.322h2.25V449.4h-2.25v16.676Zm15.03,0.158a8.481,8.481,0,1,0-8.5-8.5A8.2,8.2,0,0,0,1132.47,466.232Zm0-2c-3.55,0-6.21-2.6-6.21-6.5s2.66-6.5,6.21-6.5,6.18,2.6,6.18,6.5S1136.02,464.235,1132.47,464.235Zm21.24-14.964a7,7,0,0,0-6.34,3.2V449.4h-2.16v16.676h2.25v-8.75c0-3.805,2.25-6.024,5.84-6.024,3.17,0,5.01,1.807,5.01,5.326v9.448h2.25V456.4C1160.56,451.617,1157.77,449.271,1153.71,449.271Zm28.63,14.171a3.752,3.752,0,0,1-2.48.856c-1.87,0-2.88-1.077-2.88-3.043V451.3h5.07v-1.9h-5.07v-3.646h-2.25V449.4h-2.98v1.9h2.98v10.082c0,3.075,1.74,4.85,4.88,4.85a5.365,5.365,0,0,0,3.52-1.173Zm13.06-14.171a7.061,7.061,0,0,0-6.25,3.044V442.55h-2.25v23.524h2.25v-8.75c0-3.805,2.25-6.024,5.83-6.024,3.18,0,5.01,1.807,5.01,5.326v9.448h2.25V456.4C1202.24,451.617,1199.45,449.271,1195.4,449.271Zm18.48,0a10.61,10.61,0,0,0-6.79,2.251l1.02,1.68a8.489,8.489,0,0,1,5.55-1.965c3.1,0,4.72,1.553,4.72,4.407v1.014h-5.29c-4.79,0-6.44,2.156-6.44,4.724,0,2.885,2.32,4.85,6.09,4.85,2.76,0,4.72-1.046,5.74-2.758v2.6h2.15V455.739C1220.63,451.427,1218.19,449.271,1213.88,449.271Zm-0.79,15.186c-2.67,0-4.22-1.2-4.22-3.139,0-1.712,1.05-2.98,4.28-2.98h5.23v2.727A5.337,5.337,0,0,1,1213.09,464.457Zm21.33-1.015a3.707,3.707,0,0,1-2.47.856c-1.87,0-2.89-1.077-2.89-3.043V451.3h5.08v-1.9h-5.08v-3.646h-2.25V449.4h-2.98v1.9h2.98v10.082c0,3.075,1.75,4.85,4.89,4.85a5.319,5.319,0,0,0,3.51-1.173Zm34.97-14.044-5.29,14.171-5.33-14.171h-1.93l-5.36,14.171-5.23-14.171h-2.16l6.28,16.676h2.12l5.26-13.664,5.27,13.664h2.12l6.31-16.676h-2.06Zm19.21,8.338c0-5.009-3.39-8.465-8.08-8.465s-8.15,3.519-8.15,8.465,3.55,8.5,8.75,8.5a8.2,8.2,0,0,0,6.43-2.726l-1.26-1.458a6.587,6.587,0,0,1-5.11,2.187c-3.64,0-6.31-2.314-6.56-5.8h13.95C1288.57,458.18,1288.6,457.926,1288.6,457.736Zm-8.08-6.531a5.808,5.808,0,0,1,5.93,5.548h-11.83A5.794,5.794,0,0,1,1280.52,451.205ZM15.644,490.938a7.264,7.264,0,0,0-6.436,3.424v-3.3H7.053v22.826H9.3V504.6a7.283,7.283,0,0,0,6.341,3.3A8.482,8.482,0,0,0,15.644,490.938ZM15.486,505.9c-3.551,0-6.214-2.6-6.214-6.5a6.123,6.123,0,0,1,6.214-6.5A6.506,6.506,0,0,1,15.486,505.9Zm14.9-11.572v-3.265H28.23V507.74h2.251v-8.5c0-3.931,2.124-6.15,5.611-6.15,0.158,0,.349.031,0.539,0.031v-2.187C33.556,490.938,31.432,492.111,30.385,494.33ZM47.029,507.9a8.481,8.481,0,0,0,0-16.961A8.481,8.481,0,1,0,47.029,507.9Zm0-2c-3.551,0-6.214-2.6-6.214-6.5s2.663-6.5,6.214-6.5,6.182,2.6,6.182,6.5S50.58,505.9,47.029,505.9ZM72.74,484.217v10.018a7.283,7.283,0,0,0-6.341-3.3,8.482,8.482,0,0,0,0,16.961,7.224,7.224,0,0,0,6.436-3.456v3.3h2.156V484.217H72.74ZM66.59,505.9c-3.551,0-6.214-2.6-6.214-6.5s2.663-6.5,6.214-6.5c3.519,0,6.182,2.6,6.182,6.5S70.109,505.9,66.59,505.9Zm27.137-14.837v8.75c0,3.8-2.187,6.055-5.675,6.055-3.17,0-5.009-1.807-5.009-5.358v-9.447H80.792v9.669c0,4.787,2.79,7.165,7.038,7.165a6.633,6.633,0,0,0,5.992-3.2v3.043h2.156V491.065H93.727ZM108.88,507.9a7.352,7.352,0,0,0,6.531-3.3l-1.681-1.141a5.639,5.639,0,0,1-4.85,2.441,6.5,6.5,0,0,1,0-13,5.667,5.667,0,0,1,4.85,2.472l1.681-1.141a7.286,7.286,0,0,0-6.531-3.3A8.481,8.481,0,1,0,108.88,507.9Zm24.886-8.5c0-5.009-3.392-8.465-8.084-8.465s-8.148,3.519-8.148,8.465,3.551,8.5,8.75,8.5a8.209,8.209,0,0,0,6.436-2.726l-1.268-1.459a6.571,6.571,0,0,1-5.1,2.188c-3.646,0-6.309-2.315-6.563-5.8h13.95C133.735,499.846,133.766,499.593,133.766,499.4Zm-8.084-6.531a5.8,5.8,0,0,1,5.929,5.548H119.785A5.792,5.792,0,0,1,125.682,492.872Zm26.186-1.934a10.586,10.586,0,0,0-6.785,2.251l1.015,1.68a8.492,8.492,0,0,1,5.548-1.965c3.107,0,4.723,1.553,4.723,4.406v1.015h-5.294c-4.787,0-6.436,2.156-6.436,4.723,0,2.885,2.315,4.851,6.087,4.851,2.758,0,4.724-1.046,5.739-2.758v2.6h2.155V497.405C158.62,493.094,156.179,490.938,151.868,490.938Zm-0.793,15.186c-2.663,0-4.216-1.205-4.216-3.139,0-1.712,1.046-2.98,4.279-2.98h5.231v2.726A5.334,5.334,0,0,1,151.075,506.124ZM171.4,507.9a7.351,7.351,0,0,0,6.531-3.3l-1.68-1.141A5.642,5.642,0,0,1,171.4,505.9a6.5,6.5,0,0,1,0-13,5.67,5.67,0,0,1,4.851,2.472l1.68-1.141a7.284,7.284,0,0,0-6.531-3.3A8.481,8.481,0,1,0,171.4,507.9Zm12.776-13.569v-3.265h-2.156V507.74h2.251v-8.5c0-3.931,2.124-6.15,5.611-6.15,0.159,0,.349.031,0.539,0.031v-2.187C187.342,490.938,185.218,492.111,184.172,494.33ZM200.815,507.9a8.481,8.481,0,1,0-8.5-8.5A8.2,8.2,0,0,0,200.815,507.9Zm0-2c-3.55,0-6.213-2.6-6.213-6.5s2.663-6.5,6.213-6.5S207,495.5,207,499.4,204.366,505.9,200.815,505.9Zm17.215,2c4.343,0,6.879-1.87,6.879-4.755,0-6.4-10.81-3.012-10.81-7.514,0-1.585,1.331-2.758,4.343-2.758a8.55,8.55,0,0,1,4.914,1.426l0.983-1.807a11.3,11.3,0,0,0-5.9-1.553c-4.248,0-6.594,2.029-6.594,4.755,0,6.6,10.81,3.171,10.81,7.514,0,1.648-1.3,2.726-4.47,2.726a10.071,10.071,0,0,1-5.928-1.87l-1.015,1.775A11.145,11.145,0,0,0,218.03,507.9Zm15.185,0c4.343,0,6.88-1.87,6.88-4.755,0-6.4-10.811-3.012-10.811-7.514,0-1.585,1.332-2.758,4.343-2.758a8.55,8.55,0,0,1,4.914,1.426l0.983-1.807a11.3,11.3,0,0,0-5.9-1.553c-4.248,0-6.594,2.029-6.594,4.755,0,6.6,10.811,3.171,10.811,7.514,0,1.648-1.3,2.726-4.47,2.726a10.077,10.077,0,0,1-5.929-1.87l-1.014,1.775A11.139,11.139,0,0,0,233.215,507.9Zm19.845-20.48a1.618,1.618,0,0,0,1.649-1.649,1.6,1.6,0,0,0-1.649-1.553A1.6,1.6,0,1,0,253.06,487.419Zm-1.141,20.321h2.251V491.065h-2.251V507.74Zm16.707-16.8a7.006,7.006,0,0,0-6.34,3.2v-3.075H260.13V507.74h2.251v-8.75c0-3.8,2.251-6.023,5.833-6.023,3.17,0,5.009,1.807,5.009,5.326v9.447h2.251v-9.669C275.474,493.284,272.684,490.938,268.626,490.938Zm25.679-6.721v10.018a7.284,7.284,0,0,0-6.341-3.3,8.482,8.482,0,0,0,0,16.961,7.224,7.224,0,0,0,6.436-3.456v3.3h2.156V484.217h-2.251ZM288.154,505.9c-3.55,0-6.213-2.6-6.213-6.5s2.663-6.5,6.213-6.5c3.519,0,6.183,2.6,6.183,6.5S291.673,505.9,288.154,505.9Zm27.137-14.837v8.75c0,3.8-2.187,6.055-5.674,6.055-3.171,0-5.009-1.807-5.009-5.358v-9.447h-2.251v9.669c0,4.787,2.79,7.165,7.038,7.165a6.634,6.634,0,0,0,5.992-3.2v3.043h2.155V491.065h-2.251ZM328,507.9c4.343,0,6.879-1.87,6.879-4.755,0-6.4-10.81-3.012-10.81-7.514,0-1.585,1.331-2.758,4.343-2.758a8.552,8.552,0,0,1,4.914,1.426l0.983-1.807a11.3,11.3,0,0,0-5.9-1.553c-4.248,0-6.594,2.029-6.594,4.755,0,6.6,10.81,3.171,10.81,7.514,0,1.648-1.3,2.726-4.47,2.726a10.071,10.071,0,0,1-5.928-1.87l-1.015,1.775A11.142,11.142,0,0,0,328,507.9Zm18.7-2.79a3.722,3.722,0,0,1-2.473.856c-1.87,0-2.885-1.078-2.885-3.043v-9.955h5.073v-1.9H341.35v-3.646H339.1v3.646h-2.98v1.9h2.98v10.081c0,3.076,1.744,4.851,4.883,4.851a5.36,5.36,0,0,0,3.519-1.173Zm6.72-10.779v-3.265h-2.155V507.74h2.251v-8.5c0-3.931,2.124-6.15,5.611-6.15,0.159,0,.349.031,0.539,0.031v-2.187C356.6,490.938,354.475,492.111,353.428,494.33Zm11.128-6.911a1.617,1.617,0,0,0,1.648-1.649,1.6,1.6,0,0,0-1.648-1.553A1.6,1.6,0,1,0,364.556,487.419Zm-1.142,20.321h2.251V491.065h-2.251V507.74Zm22.763-8.337c0-5.009-3.392-8.465-8.084-8.465s-8.148,3.519-8.148,8.465,3.551,8.5,8.75,8.5a8.211,8.211,0,0,0,6.436-2.726l-1.269-1.459a6.571,6.571,0,0,1-5.1,2.188c-3.646,0-6.309-2.315-6.562-5.8h13.949C386.145,499.846,386.177,499.593,386.177,499.4Zm-8.084-6.531a5.8,5.8,0,0,1,5.928,5.548H372.2A5.792,5.792,0,0,1,378.093,492.872ZM394.926,507.9c4.343,0,6.88-1.87,6.88-4.755,0-6.4-10.811-3.012-10.811-7.514,0-1.585,1.331-2.758,4.343-2.758a8.55,8.55,0,0,1,4.914,1.426l0.983-1.807a11.3,11.3,0,0,0-5.9-1.553c-4.248,0-6.594,2.029-6.594,4.755,0,6.6,10.811,3.171,10.811,7.514,0,1.648-1.3,2.726-4.47,2.726a10.077,10.077,0,0,1-5.929-1.87l-1.014,1.775A11.139,11.139,0,0,0,394.926,507.9Zm10.969-3.456a1.659,1.659,0,0,0-1.68,1.712,1.6,1.6,0,0,0,1.141,1.617l-1.078,4.6H405.8l1.331-4.375a5.176,5.176,0,0,0,.444-1.839A1.659,1.659,0,0,0,405.9,504.443Zm22.73-13.5a7.266,7.266,0,0,0-6.436,3.424v-3.3h-2.155v22.826h2.251V504.6a7.282,7.282,0,0,0,6.34,3.3A8.482,8.482,0,0,0,428.625,490.938ZM428.467,505.9c-3.551,0-6.214-2.6-6.214-6.5A6.22,6.22,0,1,1,428.467,505.9Zm12.744,1.838h2.251V484.217h-2.251V507.74Zm14.044-16.8a10.588,10.588,0,0,0-6.785,2.251l1.015,1.68a8.492,8.492,0,0,1,5.548-1.965c3.107,0,4.724,1.553,4.724,4.406v1.015h-5.3c-4.787,0-6.435,2.156-6.435,4.723,0,2.885,2.314,4.851,6.086,4.851,2.759,0,4.724-1.046,5.739-2.758v2.6h2.155V497.405C462.007,493.094,459.566,490.938,455.255,490.938Zm-0.793,15.186c-2.663,0-4.216-1.205-4.216-3.139,0-1.712,1.046-2.98,4.28-2.98h5.231v2.726A5.336,5.336,0,0,1,454.462,506.124Zm21.336-1.015a3.724,3.724,0,0,1-2.473.856c-1.871,0-2.885-1.078-2.885-3.043v-9.955h5.072v-1.9H470.44v-3.646h-2.251v3.646h-2.98v1.9h2.98v10.081c0,3.076,1.744,4.851,4.882,4.851a5.356,5.356,0,0,0,3.519-1.173Zm10.081-19.148a3.813,3.813,0,0,1,2.473.824l0.76-1.68a5.28,5.28,0,0,0-3.328-1.047c-3.266,0-5.041,1.966-5.041,4.946v2.061h-2.98v1.9h2.98V507.74h2.251V492.967h5.072v-1.9H482.93V489.1C482.93,487.038,483.945,485.961,485.879,485.961ZM497.323,507.9a8.481,8.481,0,1,0-8.5-8.5A8.2,8.2,0,0,0,497.323,507.9Zm0-2c-3.55,0-6.213-2.6-6.213-6.5s2.663-6.5,6.213-6.5,6.182,2.6,6.182,6.5S500.874,505.9,497.323,505.9Zm14.9-11.572v-3.265h-2.155V507.74h2.25v-8.5c0-3.931,2.125-6.15,5.612-6.15,0.158,0,.349.031,0.539,0.031v-2.187C515.394,490.938,513.27,492.111,512.223,494.33Zm30.783-3.392a7.262,7.262,0,0,0-6.594,3.519c-1.014-2.346-3.17-3.519-5.928-3.519a6.744,6.744,0,0,0-6.119,3.17v-3.043h-2.156V507.74h2.251v-8.75c0-3.8,2.188-6.023,5.58-6.023,3.043,0,4.819,1.807,4.819,5.326v9.447h2.251v-8.75c0-3.8,2.155-6.023,5.579-6.023,3.012,0,4.787,1.807,4.787,5.326v9.447h2.251v-9.669C549.727,493.284,547.064,490.938,543.006,490.938ZM560,507.9c4.343,0,6.88-1.87,6.88-4.755,0-6.4-10.811-3.012-10.811-7.514,0-1.585,1.331-2.758,4.343-2.758a8.55,8.55,0,0,1,4.914,1.426l0.983-1.807a11.3,11.3,0,0,0-5.9-1.553c-4.248,0-6.594,2.029-6.594,4.755,0,6.6,10.811,3.171,10.811,7.514,0,1.648-1.3,2.726-4.47,2.726a10.077,10.077,0,0,1-5.929-1.87l-1.014,1.775A11.139,11.139,0,0,0,560,507.9Zm24.537-16.961a10.585,10.585,0,0,0-6.784,2.251l1.015,1.68a8.492,8.492,0,0,1,5.548-1.965c3.106,0,4.723,1.553,4.723,4.406v1.015h-5.294c-4.787,0-6.436,2.156-6.436,4.723,0,2.885,2.315,4.851,6.087,4.851,2.758,0,4.724-1.046,5.738-2.758v2.6h2.156V497.405C591.288,493.094,588.847,490.938,584.535,490.938Zm-0.792,15.186c-2.663,0-4.217-1.205-4.217-3.139,0-1.712,1.047-2.98,4.28-2.98h5.231v2.726A5.334,5.334,0,0,1,583.743,506.124Zm21.843-15.186a7.009,7.009,0,0,0-6.341,3.2v-3.075h-2.156V507.74h2.251v-8.75c0-3.8,2.251-6.023,5.834-6.023,3.17,0,5.009,1.807,5.009,5.326v9.447h2.251v-9.669C612.434,493.284,609.644,490.938,605.586,490.938Zm25.678-6.721v10.018a7.282,7.282,0,0,0-6.34-3.3,8.482,8.482,0,0,0,0,16.961,7.222,7.222,0,0,0,6.435-3.456v3.3h2.156V484.217h-2.251Zm-6.15,21.685c-3.551,0-6.214-2.6-6.214-6.5s2.663-6.5,6.214-6.5c3.519,0,6.182,2.6,6.182,6.5S628.633,505.9,625.114,505.9Zm26.82,2c4.343,0,6.879-1.87,6.879-4.755,0-6.4-10.811-3.012-10.811-7.514,0-1.585,1.332-2.758,4.344-2.758a8.552,8.552,0,0,1,4.914,1.426l0.983-1.807a11.3,11.3,0,0,0-5.9-1.553c-4.248,0-6.594,2.029-6.594,4.755,0,6.6,10.81,3.171,10.81,7.514,0,1.648-1.3,2.726-4.47,2.726a10.071,10.071,0,0,1-5.928-1.87l-1.015,1.775A11.142,11.142,0,0,0,651.934,507.9Zm25.266-8.5c0-5.009-3.392-8.465-8.084-8.465s-8.147,3.519-8.147,8.465,3.55,8.5,8.75,8.5a8.208,8.208,0,0,0,6.435-2.726l-1.268-1.459a6.571,6.571,0,0,1-5.1,2.188c-3.646,0-6.309-2.315-6.562-5.8h13.949C677.169,499.846,677.2,499.593,677.2,499.4Zm-8.084-6.531a5.8,5.8,0,0,1,5.929,5.548H663.22A5.791,5.791,0,0,1,669.116,492.872ZM688.391,507.9a7.351,7.351,0,0,0,6.531-3.3l-1.681-1.141a5.639,5.639,0,0,1-4.85,2.441,6.5,6.5,0,0,1,0-13,5.667,5.667,0,0,1,4.85,2.472l1.681-1.141a7.284,7.284,0,0,0-6.531-3.3A8.481,8.481,0,1,0,688.391,507.9Zm18.8-2.79a3.722,3.722,0,0,1-2.473.856c-1.87,0-2.885-1.078-2.885-3.043v-9.955h5.073v-1.9h-5.073v-3.646h-2.251v3.646H696.6v1.9h2.98v10.081c0,3.076,1.744,4.851,4.883,4.851a5.36,5.36,0,0,0,3.519-1.173Zm10.778,2.79a8.481,8.481,0,1,0-8.5-8.5A8.2,8.2,0,0,0,717.968,507.9Zm0-2c-3.55,0-6.213-2.6-6.213-6.5s2.663-6.5,6.213-6.5,6.183,2.6,6.183,6.5S721.519,505.9,717.968,505.9Zm14.9-11.572v-3.265h-2.156V507.74h2.251v-8.5c0-3.931,2.124-6.15,5.611-6.15,0.159,0,.349.031,0.539,0.031v-2.187C736.039,490.938,733.915,492.111,732.869,494.33ZM747.451,507.9c4.343,0,6.88-1.87,6.88-4.755,0-6.4-10.811-3.012-10.811-7.514,0-1.585,1.332-2.758,4.343-2.758a8.55,8.55,0,0,1,4.914,1.426l0.983-1.807a11.3,11.3,0,0,0-5.9-1.553c-4.248,0-6.594,2.029-6.594,4.755,0,6.6,10.811,3.171,10.811,7.514,0,1.648-1.3,2.726-4.47,2.726a10.077,10.077,0,0,1-5.929-1.87l-1.014,1.775A11.139,11.139,0,0,0,747.451,507.9Zm10.937,0a1.732,1.732,0,0,0,1.712-1.744,1.7,1.7,0,0,0-1.712-1.712,1.679,1.679,0,0,0-1.68,1.712A1.706,1.706,0,0,0,758.388,507.9Zm28.627-11.6a5.154,5.154,0,0,0,3.392-5.041c0-3.614-2.853-5.707-7.8-5.707h-9.575V507.74h10.209c5.548,0,8.338-2.155,8.338-5.928A5.3,5.3,0,0,0,787.015,496.3Zm-4.565-8.814c3.551,0,5.612,1.364,5.612,4.027s-2.061,4.026-5.612,4.026h-7.07v-8.053h7.07Zm0.761,18.325H775.38v-8.338h7.831c3.9,0,6.023,1.268,6.023,4.153C789.234,504.538,787.11,505.807,783.211,505.807Zm24.728-14.742-6.278,14.171-6.277-14.171h-2.346l7.45,16.644-0.729,1.617c-0.951,2.092-1.965,2.789-3.455,2.789a4.163,4.163,0,0,1-3.044-1.268l-1.046,1.681a5.71,5.71,0,0,0,4.058,1.521c2.378,0,4.153-1.046,5.548-4.311l8.338-18.673h-2.219Zm21.652-.127a7.284,7.284,0,0,0-6.341,3.3V484.217H821V507.74h2.156v-3.3a7.224,7.224,0,0,0,6.436,3.456A8.482,8.482,0,0,0,829.591,490.938ZM829.432,505.9c-3.55,0-6.213-2.6-6.213-6.5s2.663-6.5,6.213-6.5A6.506,6.506,0,0,1,829.432,505.9Zm14.9-11.572v-3.265h-2.156V507.74h2.251v-8.5c0-3.931,2.124-6.15,5.612-6.15,0.158,0,.348.031,0.539,0.031v-2.187C847.5,490.938,845.378,492.111,844.332,494.33Zm11.127-6.911a1.618,1.618,0,0,0,1.649-1.649,1.6,1.6,0,0,0-1.649-1.553A1.6,1.6,0,1,0,855.459,487.419Zm-1.141,20.321h2.251V491.065h-2.251V507.74Zm16.707-16.8a7.006,7.006,0,0,0-6.34,3.2v-3.075h-2.156V507.74h2.251v-8.75c0-3.8,2.251-6.023,5.833-6.023,3.17,0,5.009,1.807,5.009,5.326v9.447h2.251v-9.669C877.873,493.284,875.083,490.938,871.025,490.938Zm26,0.127v3.2a7.525,7.525,0,0,0-6.594-3.329c-4.756,0-8.37,3.265-8.37,8.052s3.614,8.116,8.37,8.116a7.5,7.5,0,0,0,6.5-3.233V506c0,4.121-1.934,6.055-6.151,6.055a9.922,9.922,0,0,1-6.562-2.283l-1.142,1.712c1.744,1.649,4.724,2.568,7.768,2.568,5.516,0,8.338-2.6,8.338-8.338V491.065h-2.156Zm-6.373,14.044a6.106,6.106,0,1,1,0-12.2c3.678,0,6.341,2.472,6.341,6.086A5.987,5.987,0,0,1,890.648,505.109Zm15.661-17.69a1.618,1.618,0,0,0,1.649-1.649,1.6,1.6,0,0,0-1.649-1.553A1.6,1.6,0,1,0,906.309,487.419Zm-1.141,20.321h2.251V491.065h-2.251V507.74Zm16.707-16.8a7.009,7.009,0,0,0-6.341,3.2v-3.075h-2.155V507.74h2.25v-8.75c0-3.8,2.251-6.023,5.834-6.023,3.17,0,5.009,1.807,5.009,5.326v9.447h2.251v-9.669C928.723,493.284,925.933,490.938,921.875,490.938Zm26,0.127v3.2a7.524,7.524,0,0,0-6.594-3.329c-4.755,0-8.369,3.265-8.369,8.052s3.614,8.116,8.369,8.116a7.5,7.5,0,0,0,6.5-3.233V506c0,4.121-1.934,6.055-6.15,6.055a9.926,9.926,0,0,1-6.563-2.283l-1.141,1.712c1.744,1.649,4.724,2.568,7.767,2.568,5.517,0,8.338-2.6,8.338-8.338V491.065H947.87ZM941.5,505.109a6.106,6.106,0,1,1,0-12.2c3.678,0,6.341,2.472,6.341,6.086A5.987,5.987,0,0,1,941.5,505.109Zm30.5,0a3.722,3.722,0,0,1-2.473.856c-1.87,0-2.885-1.078-2.885-3.043v-9.955h5.073v-1.9h-5.073v-3.646h-2.251v3.646h-2.98v1.9h2.98v10.081c0,3.076,1.744,4.851,4.883,4.851a5.358,5.358,0,0,0,3.519-1.173Zm10.779,2.79a8.481,8.481,0,1,0-8.5-8.5A8.2,8.2,0,0,0,982.774,507.9Zm0-2c-3.551,0-6.214-2.6-6.214-6.5s2.663-6.5,6.214-6.5,6.182,2.6,6.182,6.5S986.324,505.9,982.774,505.9Zm26.026-14.837v3.2a7.511,7.511,0,0,0-6.59-3.329c-4.758,0-8.372,3.265-8.372,8.052s3.614,8.116,8.372,8.116a7.519,7.519,0,0,0,6.5-3.233V506c0,4.121-1.94,6.055-6.15,6.055a9.93,9.93,0,0,1-6.567-2.283l-1.141,1.712c1.744,1.649,4.724,2.568,7.768,2.568,5.52,0,8.34-2.6,8.34-8.338V491.065h-2.16Zm-6.37,14.044a6.106,6.106,0,1,1,0-12.2c3.68,0,6.34,2.472,6.34,6.086A5.985,5.985,0,0,1,1002.43,505.109Zm29.07-5.706c0-5.009-3.39-8.465-8.08-8.465s-8.15,3.519-8.15,8.465,3.55,8.5,8.75,8.5a8.2,8.2,0,0,0,6.43-2.726l-1.26-1.459a6.585,6.585,0,0,1-5.11,2.188c-3.64,0-6.31-2.315-6.56-5.8h13.95C1031.47,499.846,1031.5,499.593,1031.5,499.4Zm-8.08-6.531a5.792,5.792,0,0,1,5.92,5.548h-11.82A5.787,5.787,0,0,1,1023.42,492.872Zm20.35,12.237a3.744,3.744,0,0,1-2.47.856c-1.88,0-2.89-1.078-2.89-3.043v-9.955h5.07v-1.9h-5.07v-3.646h-2.25v3.646h-2.98v1.9h2.98v10.081c0,3.076,1.74,4.851,4.88,4.851a5.365,5.365,0,0,0,3.52-1.173Zm13.06-14.171a7.063,7.063,0,0,0-6.25,3.043v-9.764h-2.25V507.74h2.25v-8.75c0-3.8,2.25-6.023,5.84-6.023,3.17,0,5.01,1.807,5.01,5.326v9.447h2.25v-9.669C1063.68,493.284,1060.89,490.938,1056.83,490.938Zm27.26,8.465c0-5.009-3.39-8.465-8.08-8.465s-8.15,3.519-8.15,8.465,3.55,8.5,8.75,8.5a8.221,8.221,0,0,0,6.44-2.726l-1.27-1.459a6.585,6.585,0,0,1-5.11,2.188c-3.64,0-6.3-2.315-6.56-5.8h13.95C1084.06,499.846,1084.09,499.593,1084.09,499.4Zm-8.08-6.531a5.807,5.807,0,0,1,5.93,5.548h-11.83A5.794,5.794,0,0,1,1076.01,492.872Zm14.52,1.458v-3.265h-2.16V507.74h2.25v-8.5c0-3.931,2.13-6.15,5.61-6.15,0.16,0,.35.031,0.54,0.031v-2.187C1093.7,490.938,1091.57,492.111,1090.53,494.33Zm24.06-3.392a10.624,10.624,0,0,0-6.79,2.251l1.02,1.68a8.484,8.484,0,0,1,5.55-1.965c3.1,0,4.72,1.553,4.72,4.406v1.015h-5.29c-4.79,0-6.44,2.156-6.44,4.723,0,2.885,2.32,4.851,6.09,4.851,2.76,0,4.72-1.046,5.74-2.758v2.6h2.15V497.405C1121.34,493.094,1118.9,490.938,1114.59,490.938Zm-0.79,15.186c-2.67,0-4.22-1.205-4.22-3.139,0-1.712,1.05-2.98,4.28-2.98h5.23v2.726A5.337,5.337,0,0,1,1113.8,506.124Zm34.3-21.907v10.018a7.291,7.291,0,0,0-6.34-3.3,8.482,8.482,0,0,0,0,16.961,7.209,7.209,0,0,0,6.43-3.456v3.3h2.16V484.217h-2.25Zm-6.15,21.685c-3.55,0-6.22-2.6-6.22-6.5s2.67-6.5,6.22-6.5c3.52,0,6.18,2.6,6.18,6.5S1145.47,505.9,1141.95,505.9Zm26.15-14.837-6.27,14.171-6.28-14.171h-2.35l7.45,16.644-0.73,1.617c-0.95,2.092-1.96,2.789-3.45,2.789a4.177,4.177,0,0,1-3.05-1.268l-1.04,1.681a5.7,5.7,0,0,0,4.06,1.521c2.37,0,4.15-1.046,5.54-4.311l8.34-18.673h-2.22Zm13.57-.127a7.007,7.007,0,0,0-6.34,3.2v-3.075h-2.16V507.74h2.26v-8.75c0-3.8,2.25-6.023,5.83-6.023,3.17,0,5.01,1.807,5.01,5.326v9.447h2.25v-9.669C1188.52,493.284,1185.73,490.938,1181.67,490.938Zm18.48,0a10.576,10.576,0,0,0-6.78,2.251l1.01,1.68a8.523,8.523,0,0,1,5.55-1.965c3.11,0,4.72,1.553,4.72,4.406v1.015h-5.29c-4.79,0-6.44,2.156-6.44,4.723,0,2.885,2.32,4.851,6.09,4.851,2.76,0,4.73-1.046,5.74-2.758v2.6h2.16V497.405C1206.91,493.094,1204.46,490.938,1200.15,490.938Zm-0.79,15.186c-2.66,0-4.22-1.205-4.22-3.139,0-1.712,1.05-2.98,4.28-2.98h5.23v2.726A5.319,5.319,0,0,1,1199.36,506.124Zm34.14-15.186a7.251,7.251,0,0,0-6.59,3.519c-1.01-2.346-3.17-3.519-5.93-3.519a6.754,6.754,0,0,0-6.12,3.17v-3.043h-2.15V507.74h2.25v-8.75c0-3.8,2.19-6.023,5.58-6.023,3.04,0,4.82,1.807,4.82,5.326v9.447h2.25v-8.75c0-3.8,2.15-6.023,5.58-6.023,3.01,0,4.78,1.807,4.78,5.326v9.447h2.25v-9.669C1240.22,493.284,1237.56,490.938,1233.5,490.938Zm13.67-3.519a1.62,1.62,0,0,0,1.65-1.649,1.6,1.6,0,0,0-1.65-1.553A1.6,1.6,0,1,0,1247.17,487.419Zm-1.14,20.321h2.25V491.065h-2.25V507.74Zm15.12,0.159a7.349,7.349,0,0,0,6.53-3.3l-1.68-1.141a5.643,5.643,0,0,1-4.85,2.441,6.5,6.5,0,0,1,0-13,5.671,5.671,0,0,1,4.85,2.472l1.68-1.141a7.283,7.283,0,0,0-6.53-3.3A8.481,8.481,0,1,0,1261.15,507.9ZM9.208,536v-3.266H7.053v16.676H9.3v-8.5c0-3.931,2.124-6.151,5.611-6.151,0.159,0,.349.032,0.539,0.032v-2.187C12.379,532.605,10.255,533.778,9.208,536Zm24.379,5.072c0-5.009-3.392-8.464-8.084-8.464s-8.148,3.519-8.148,8.464,3.551,8.5,8.75,8.5a8.207,8.207,0,0,0,6.436-2.727l-1.268-1.458a6.574,6.574,0,0,1-5.1,2.187c-3.646,0-6.309-2.314-6.562-5.8H33.556C33.556,541.513,33.588,541.259,33.588,541.069ZM25.5,534.538a5.8,5.8,0,0,1,5.929,5.548H19.607A5.792,5.792,0,0,1,25.5,534.538Zm16.834,15.028c4.343,0,6.88-1.871,6.88-4.756,0-6.4-10.811-3.012-10.811-7.513,0-1.586,1.331-2.759,4.343-2.759a8.551,8.551,0,0,1,4.914,1.427l0.983-1.807a11.3,11.3,0,0,0-5.9-1.553c-4.248,0-6.594,2.029-6.594,4.755,0,6.594,10.811,3.17,10.811,7.514,0,1.648-1.3,2.726-4.47,2.726a10.074,10.074,0,0,1-5.928-1.87l-1.015,1.775A11.141,11.141,0,0,0,42.337,549.566Zm17.531,0a8.481,8.481,0,1,0-8.5-8.5A8.2,8.2,0,0,0,59.868,549.566Zm0-2c-3.551,0-6.214-2.6-6.214-6.5s2.663-6.5,6.214-6.5,6.182,2.6,6.182,6.5S63.419,547.568,59.868,547.568Zm25.521-14.837v8.75c0,3.8-2.187,6.056-5.675,6.056-3.17,0-5.009-1.807-5.009-5.358v-9.448H72.454v9.67c0,4.787,2.79,7.165,7.038,7.165a6.633,6.633,0,0,0,5.992-3.2v3.043H87.64V532.731H85.389ZM95.787,536v-3.266H93.631v16.676h2.251v-8.5c0-3.931,2.124-6.151,5.611-6.151,0.159,0,.349.032,0.539,0.032v-2.187C98.957,532.605,96.833,533.778,95.787,536Zm16.739,13.569a7.351,7.351,0,0,0,6.53-3.3l-1.68-1.142a5.641,5.641,0,0,1-4.85,2.441,6.5,6.5,0,0,1,0-13,5.669,5.669,0,0,1,4.85,2.473l1.68-1.141a7.281,7.281,0,0,0-6.53-3.3A8.481,8.481,0,1,0,112.526,549.566Zm24.886-8.5c0-5.009-3.392-8.464-8.084-8.464s-8.148,3.519-8.148,8.464,3.551,8.5,8.75,8.5a8.207,8.207,0,0,0,6.436-2.727l-1.268-1.458a6.573,6.573,0,0,1-5.1,2.187c-3.646,0-6.309-2.314-6.563-5.8H137.38C137.38,541.513,137.412,541.259,137.412,541.069Zm-8.084-6.531a5.8,5.8,0,0,1,5.928,5.548H123.431A5.792,5.792,0,0,1,129.328,534.538Zm28.944-1.933a7.261,7.261,0,0,0-6.436,3.424v-3.3H149.68v22.826h2.251v-9.288a7.285,7.285,0,0,0,6.341,3.3A8.482,8.482,0,0,0,158.272,532.605Zm-0.159,14.963c-3.551,0-6.214-2.6-6.214-6.5A6.22,6.22,0,1,1,158.113,547.568Zm19.56,2a8.481,8.481,0,1,0-8.5-8.5A8.2,8.2,0,0,0,177.673,549.566Zm0-2c-3.551,0-6.214-2.6-6.214-6.5s2.663-6.5,6.214-6.5,6.182,2.6,6.182,6.5S181.224,547.568,177.673,547.568Zm19.56,2a8.481,8.481,0,1,0-8.5-8.5A8.2,8.2,0,0,0,197.233,549.566Zm0-2c-3.55,0-6.213-2.6-6.213-6.5s2.663-6.5,6.213-6.5,6.182,2.6,6.182,6.5S200.784,547.568,197.233,547.568Zm12.745,1.839h2.25V525.884h-2.25v23.523Zm24.188-2.631a3.728,3.728,0,0,1-2.473.856c-1.87,0-2.885-1.078-2.885-3.044v-9.954h5.073v-1.9h-5.073v-3.645h-2.25v3.645h-2.98v1.9h2.98v10.081c0,3.075,1.743,4.851,4.882,4.851a5.364,5.364,0,0,0,3.519-1.173Zm13.061-14.171a7.046,7.046,0,0,0-6.245,3.043v-9.764h-2.251v23.523h2.251v-8.75c0-3.8,2.251-6.023,5.833-6.023,3.17,0,5.009,1.807,5.009,5.326v9.447h2.251v-9.669C254.075,534.951,251.285,532.605,247.227,532.605Zm18.482,0a10.585,10.585,0,0,0-6.784,2.251l1.014,1.68a8.5,8.5,0,0,1,5.548-1.966c3.107,0,4.724,1.554,4.724,4.407v1.014h-5.294c-4.787,0-6.436,2.156-6.436,4.724,0,2.885,2.314,4.851,6.087,4.851,2.758,0,4.724-1.047,5.738-2.759v2.6h2.156V539.072C272.462,534.76,270.021,532.605,265.709,532.605Zm-0.792,15.185c-2.663,0-4.217-1.2-4.217-3.138,0-1.712,1.046-2.98,4.28-2.98h5.231V544.4A5.334,5.334,0,0,1,264.917,547.79Zm21.335-1.014a3.728,3.728,0,0,1-2.473.856c-1.87,0-2.884-1.078-2.884-3.044v-9.954h5.072v-1.9H280.9v-3.645h-2.251v3.645h-2.98v1.9h2.98v10.081c0,3.075,1.743,4.851,4.882,4.851a5.364,5.364,0,0,0,3.519-1.173Zm18.387-14.171a10.585,10.585,0,0,0-6.784,2.251l1.014,1.68a8.493,8.493,0,0,1,5.548-1.966c3.107,0,4.724,1.554,4.724,4.407v1.014h-5.294c-4.788,0-6.436,2.156-6.436,4.724,0,2.885,2.314,4.851,6.087,4.851,2.758,0,4.724-1.047,5.738-2.759v2.6h2.156V539.072C311.392,534.76,308.951,532.605,304.639,532.605Zm-0.792,15.185c-2.663,0-4.217-1.2-4.217-3.138,0-1.712,1.046-2.98,4.28-2.98h5.231V544.4A5.334,5.334,0,0,1,303.847,547.79Zm26.376-21.906V535.9a7.284,7.284,0,0,0-6.341-3.3,8.482,8.482,0,0,0,0,16.961,7.224,7.224,0,0,0,6.436-3.456v3.3h2.156V525.884h-2.251Zm-6.15,21.684c-3.551,0-6.214-2.6-6.214-6.5s2.663-6.5,6.214-6.5c3.519,0,6.182,2.6,6.182,6.5S327.592,547.568,324.073,547.568Zm20.194-14.963a10.588,10.588,0,0,0-6.785,2.251l1.015,1.68a8.493,8.493,0,0,1,5.548-1.966c3.107,0,4.723,1.554,4.723,4.407v1.014h-5.294c-4.787,0-6.436,2.156-6.436,4.724,0,2.885,2.315,4.851,6.087,4.851,2.758,0,4.724-1.047,5.739-2.759v2.6h2.155V539.072C351.019,534.76,348.578,532.605,344.267,532.605Zm-0.793,15.185c-2.663,0-4.216-1.2-4.216-3.138,0-1.712,1.046-2.98,4.279-2.98h5.231V544.4A5.333,5.333,0,0,1,343.474,547.79Zm21.938-15.185a7.263,7.263,0,0,0-6.436,3.424v-3.3h-2.155v22.826h2.25v-9.288a7.286,7.286,0,0,0,6.341,3.3A8.482,8.482,0,0,0,365.412,532.605Zm-0.158,14.963c-3.551,0-6.214-2.6-6.214-6.5A6.22,6.22,0,1,1,365.254,547.568Zm20.733-.792a3.729,3.729,0,0,1-2.473.856c-1.871,0-2.885-1.078-2.885-3.044v-9.954H385.7v-1.9h-5.072v-3.645h-2.251v3.645H375.4v1.9h2.98v10.081c0,3.075,1.744,4.851,4.882,4.851a5.362,5.362,0,0,0,3.519-1.173Zm9.034,2.79c4.344,0,6.88-1.871,6.88-4.756,0-6.4-10.811-3.012-10.811-7.513,0-1.586,1.332-2.759,4.344-2.759a8.55,8.55,0,0,1,4.913,1.427l0.983-1.807a11.3,11.3,0,0,0-5.9-1.553c-4.249,0-6.6,2.029-6.6,4.755,0,6.594,10.811,3.17,10.811,7.514,0,1.648-1.3,2.726-4.47,2.726a10.077,10.077,0,0,1-5.929-1.87l-1.014,1.775A11.139,11.139,0,0,0,395.021,549.566Zm31.766-16.835v3.3a7.262,7.262,0,0,0-6.436-3.424,8.482,8.482,0,0,0,0,16.961,7.286,7.286,0,0,0,6.341-3.3v9.288h2.251V532.731h-2.156Zm-6.245,14.837c-3.551,0-6.214-2.6-6.214-6.5a6.124,6.124,0,0,1,6.214-6.5c3.519,0,6.182,2.632,6.182,6.5C426.724,544.969,424.061,547.568,420.542,547.568Zm27.137-14.837v8.75c0,3.8-2.188,6.056-5.675,6.056-3.17,0-5.009-1.807-5.009-5.358v-9.448h-2.251v9.67c0,4.787,2.79,7.165,7.038,7.165a6.634,6.634,0,0,0,5.992-3.2v3.043h2.156V532.731h-2.251Zm9.383-3.645a1.619,1.619,0,0,0,1.649-1.649,1.6,1.6,0,0,0-1.649-1.553A1.6,1.6,0,1,0,457.062,529.086Zm-1.141,20.321h2.251V532.731h-2.251v16.676Zm15.122,0.159a7.351,7.351,0,0,0,6.53-3.3l-1.68-1.142a5.639,5.639,0,0,1-4.85,2.441,6.5,6.5,0,0,1,0-13,5.668,5.668,0,0,1,4.85,2.473l1.68-1.141a7.281,7.281,0,0,0-6.53-3.3A8.481,8.481,0,1,0,471.043,549.566Zm23.269-.159h2.758l-7.8-9.859,7.133-6.817h-2.789l-9.955,9.1V525.884h-2.251v23.523h2.251v-4.755l3.931-3.614Zm5.833,0H502.4V525.884h-2.251v23.523Zm20-16.676L513.872,546.9,507.6,532.731h-2.346l7.45,16.644-0.729,1.617c-0.951,2.093-1.966,2.79-3.456,2.79a4.165,4.165,0,0,1-3.043-1.268l-1.046,1.68a5.7,5.7,0,0,0,4.058,1.522c2.377,0,4.153-1.046,5.548-4.312l8.338-18.673h-2.22Zm21.05,14.045a3.728,3.728,0,0,1-2.473.856c-1.87,0-2.885-1.078-2.885-3.044v-9.954h5.073v-1.9h-5.073v-3.645H533.59v3.645h-2.98v1.9h2.98v10.081c0,3.075,1.744,4.851,4.883,4.851a5.364,5.364,0,0,0,3.519-1.173Zm10.779,2.79a8.481,8.481,0,1,0-8.5-8.5A8.2,8.2,0,0,0,551.978,549.566Zm0-2c-3.551,0-6.214-2.6-6.214-6.5s2.663-6.5,6.214-6.5,6.182,2.6,6.182,6.5S555.528,547.568,551.978,547.568Zm27.644,2a7.354,7.354,0,0,0,6.531-3.3l-1.681-1.142a5.639,5.639,0,0,1-4.85,2.441,6.5,6.5,0,0,1,0-13,5.668,5.668,0,0,1,4.85,2.473l1.681-1.141a7.283,7.283,0,0,0-6.531-3.3A8.481,8.481,0,1,0,579.622,549.566Zm18.863-16.961a7.048,7.048,0,0,0-6.246,3.043v-9.764h-2.251v23.523h2.251v-8.75c0-3.8,2.251-6.023,5.833-6.023,3.171,0,5.009,1.807,5.009,5.326v9.447h2.251v-9.669C605.332,534.951,602.543,532.605,598.485,532.605Zm18.482,0a10.586,10.586,0,0,0-6.785,2.251l1.015,1.68a8.493,8.493,0,0,1,5.548-1.966c3.106,0,4.723,1.554,4.723,4.407v1.014h-5.294c-4.787,0-6.436,2.156-6.436,4.724,0,2.885,2.315,4.851,6.087,4.851,2.758,0,4.724-1.047,5.738-2.759v2.6h2.156V539.072C623.719,534.76,621.278,532.605,616.967,532.605Zm-0.793,15.185c-2.663,0-4.217-1.2-4.217-3.138,0-1.712,1.047-2.98,4.28-2.98h5.231V544.4A5.333,5.333,0,0,1,616.174,547.79Zm21.843-15.185a7.009,7.009,0,0,0-6.341,3.2v-3.076H629.52v16.676h2.251v-8.75c0-3.8,2.251-6.023,5.834-6.023,3.17,0,5.009,1.807,5.009,5.326v9.447h2.251v-9.669C644.865,534.951,642.075,532.605,638.017,532.605Zm25.995,0.126v3.2a7.526,7.526,0,0,0-6.594-3.328c-4.755,0-8.369,3.265-8.369,8.052s3.614,8.116,8.369,8.116a7.5,7.5,0,0,0,6.5-3.234v2.124c0,4.122-1.934,6.056-6.15,6.056a9.926,9.926,0,0,1-6.563-2.283l-1.141,1.712c1.744,1.649,4.724,2.568,7.767,2.568,5.517,0,8.338-2.6,8.338-8.338V532.731h-2.156Zm-6.372,14.045a6.106,6.106,0,1,1,0-12.206c3.678,0,6.341,2.473,6.341,6.087A5.987,5.987,0,0,1,657.64,546.776Zm15.66-17.69a1.618,1.618,0,0,0,1.649-1.649,1.6,1.6,0,0,0-1.649-1.553A1.6,1.6,0,1,0,673.3,529.086Zm-1.141,20.321h2.251V532.731h-2.251v16.676Zm16.707-16.8a7.006,7.006,0,0,0-6.34,3.2v-3.076H680.37v16.676h2.251v-8.75c0-3.8,2.251-6.023,5.833-6.023,3.17,0,5.009,1.807,5.009,5.326v9.447h2.251v-9.669C695.714,534.951,692.924,532.605,688.866,532.605Zm26,0.126v3.2a7.526,7.526,0,0,0-6.594-3.328c-4.756,0-8.37,3.265-8.37,8.052s3.614,8.116,8.37,8.116a7.505,7.505,0,0,0,6.5-3.234v2.124c0,4.122-1.934,6.056-6.151,6.056a9.922,9.922,0,0,1-6.562-2.283l-1.141,1.712c1.743,1.649,4.723,2.568,7.767,2.568,5.516,0,8.338-2.6,8.338-8.338V532.731h-2.156Zm-6.372,14.045a6.106,6.106,0,1,1,0-12.206c3.677,0,6.34,2.473,6.34,6.087A5.987,5.987,0,0,1,708.49,546.776Zm31.1-14.171a7.281,7.281,0,0,0-6.34,3.3V525.884H731v23.523h2.155v-3.3a7.225,7.225,0,0,0,6.436,3.456A8.482,8.482,0,0,0,739.589,532.605Zm-0.158,14.963c-3.551,0-6.214-2.6-6.214-6.5s2.663-6.5,6.214-6.5A6.506,6.506,0,0,1,739.431,547.568Zm25.52-14.837v8.75c0,3.8-2.188,6.056-5.675,6.056-3.17,0-5.009-1.807-5.009-5.358v-9.448h-2.251v9.67c0,4.787,2.79,7.165,7.038,7.165a6.634,6.634,0,0,0,5.992-3.2v3.043H767.2V532.731h-2.251Zm12.712,16.835c4.343,0,6.879-1.871,6.879-4.756,0-6.4-10.81-3.012-10.81-7.513,0-1.586,1.331-2.759,4.343-2.759a8.551,8.551,0,0,1,4.914,1.427l0.983-1.807a11.3,11.3,0,0,0-5.9-1.553c-4.248,0-6.594,2.029-6.594,4.755,0,6.594,10.811,3.17,10.811,7.514,0,1.648-1.3,2.726-4.471,2.726a10.073,10.073,0,0,1-5.928-1.87l-1.014,1.775A11.139,11.139,0,0,0,777.663,549.566Zm11.857-20.48a1.618,1.618,0,0,0,1.648-1.649,1.6,1.6,0,0,0-1.648-1.553A1.6,1.6,0,1,0,789.52,529.086Zm-1.142,20.321h2.251V532.731h-2.251v16.676Zm16.707-16.8a7.006,7.006,0,0,0-6.34,3.2v-3.076h-2.156v16.676h2.251v-8.75c0-3.8,2.251-6.023,5.833-6.023,3.171,0,5.009,1.807,5.009,5.326v9.447h2.251v-9.669C811.933,534.951,809.143,532.605,805.085,532.605Zm27.264,8.464c0-5.009-3.392-8.464-8.084-8.464s-8.148,3.519-8.148,8.464,3.551,8.5,8.75,8.5a8.208,8.208,0,0,0,6.436-2.727l-1.268-1.458a6.575,6.575,0,0,1-5.105,2.187c-3.645,0-6.308-2.314-6.562-5.8h13.949C832.317,541.513,832.349,541.259,832.349,541.069Zm-8.084-6.531a5.8,5.8,0,0,1,5.928,5.548H818.368A5.792,5.792,0,0,1,824.265,534.538ZM841.1,549.566c4.344,0,6.88-1.871,6.88-4.756,0-6.4-10.811-3.012-10.811-7.513,0-1.586,1.332-2.759,4.343-2.759a8.551,8.551,0,0,1,4.914,1.427l0.983-1.807a11.3,11.3,0,0,0-5.9-1.553c-4.248,0-6.594,2.029-6.594,4.755,0,6.594,10.811,3.17,10.811,7.514,0,1.648-1.3,2.726-4.47,2.726a10.077,10.077,0,0,1-5.929-1.87l-1.014,1.775A11.139,11.139,0,0,0,841.1,549.566Zm15.186,0c4.343,0,6.879-1.871,6.879-4.756,0-6.4-10.81-3.012-10.81-7.513,0-1.586,1.331-2.759,4.343-2.759a8.553,8.553,0,0,1,4.914,1.427l0.983-1.807a11.3,11.3,0,0,0-5.9-1.553c-4.248,0-6.594,2.029-6.594,4.755,0,6.594,10.81,3.17,10.81,7.514,0,1.648-1.3,2.726-4.47,2.726a10.071,10.071,0,0,1-5.928-1.87l-1.015,1.775A11.142,11.142,0,0,0,856.284,549.566ZM877.143,536v-3.266h-2.155v16.676h2.251v-8.5c0-3.931,2.124-6.151,5.611-6.151,0.159,0,.349.032,0.539,0.032v-2.187C880.314,532.605,878.19,533.778,877.143,536Zm24.38,5.072c0-5.009-3.392-8.464-8.084-8.464s-8.148,3.519-8.148,8.464,3.551,8.5,8.75,8.5a8.208,8.208,0,0,0,6.436-2.727l-1.269-1.458a6.573,6.573,0,0,1-5.1,2.187c-3.645,0-6.309-2.314-6.562-5.8h13.949C901.491,541.513,901.523,541.259,901.523,541.069Zm-8.084-6.531a5.8,5.8,0,0,1,5.928,5.548H887.542A5.792,5.792,0,0,1,893.439,534.538Zm25.425-1.807v3.3a7.263,7.263,0,0,0-6.436-3.424,8.482,8.482,0,0,0,0,16.961,7.283,7.283,0,0,0,6.34-3.3v9.288h2.251V532.731h-2.155Zm-6.246,14.837c-3.551,0-6.214-2.6-6.214-6.5a6.124,6.124,0,0,1,6.214-6.5c3.519,0,6.182,2.632,6.182,6.5C918.8,544.969,916.137,547.568,912.618,547.568Zm27.137-14.837v8.75c0,3.8-2.187,6.056-5.675,6.056-3.17,0-5.009-1.807-5.009-5.358v-9.448H926.82v9.67c0,4.787,2.79,7.165,7.039,7.165a6.632,6.632,0,0,0,5.991-3.2v3.043h2.156V532.731h-2.251Zm9.384-3.645a1.618,1.618,0,0,0,1.648-1.649,1.6,1.6,0,0,0-1.648-1.553A1.6,1.6,0,1,0,949.139,529.086ZM948,549.407h2.251V532.731H948v16.676ZM958.364,536v-3.266h-2.156v16.676h2.251v-8.5c0-3.931,2.124-6.151,5.611-6.151,0.159,0,.349.032,0.539,0.032v-2.187C961.534,532.605,959.41,533.778,958.364,536Zm24.379,5.072c0-5.009-3.392-8.464-8.084-8.464s-8.148,3.519-8.148,8.464,3.551,8.5,8.75,8.5a8.207,8.207,0,0,0,6.436-2.727l-1.268-1.458a6.573,6.573,0,0,1-5.1,2.187c-3.646,0-6.309-2.314-6.563-5.8h13.95C982.712,541.513,982.743,541.259,982.743,541.069Zm-8.084-6.531a5.8,5.8,0,0,1,5.928,5.548H968.762A5.793,5.793,0,0,1,974.659,534.538Zm33.161-1.933a7.251,7.251,0,0,0-6.59,3.519c-1.02-2.346-3.175-3.519-5.933-3.519a6.744,6.744,0,0,0-6.119,3.17v-3.044h-2.156v16.676h2.251v-8.75c0-3.8,2.188-6.023,5.58-6.023,3.044,0,4.819,1.807,4.819,5.326v9.447h2.248v-8.75c0-3.8,2.16-6.023,5.58-6.023,3.01,0,4.79,1.807,4.79,5.326v9.447h2.25v-9.669C1014.54,534.951,1011.88,532.605,1007.82,532.605Zm27.14,8.464c0-5.009-3.4-8.464-8.09-8.464s-8.15,3.519-8.15,8.464,3.56,8.5,8.75,8.5a8.2,8.2,0,0,0,6.44-2.727l-1.27-1.458a6.566,6.566,0,0,1-5.1,2.187c-3.65,0-6.31-2.314-6.56-5.8h13.94C1034.92,541.513,1034.96,541.259,1034.96,541.069Zm-8.09-6.531a5.8,5.8,0,0,1,5.93,5.548h-11.82A5.785,5.785,0,0,1,1026.87,534.538Zm20.86-1.933a7.018,7.018,0,0,0-6.34,3.2v-3.076h-2.15v16.676h2.25v-8.75c0-3.8,2.25-6.023,5.83-6.023,3.17,0,5.01,1.807,5.01,5.326v9.447h2.25v-9.669C1054.58,534.951,1051.79,532.605,1047.73,532.605Zm20.64,14.171a3.712,3.712,0,0,1-2.47.856c-1.87,0-2.89-1.078-2.89-3.044v-9.954h5.07v-1.9h-5.07v-3.645h-2.25v3.645h-2.98v1.9h2.98v10.081c0,3.075,1.74,4.851,4.88,4.851a5.37,5.37,0,0,0,3.52-1.173Zm9.03,2.79c4.35,0,6.88-1.871,6.88-4.756,0-6.4-10.81-3.012-10.81-7.513,0-1.586,1.33-2.759,4.35-2.759a8.547,8.547,0,0,1,4.91,1.427l0.98-1.807a11.278,11.278,0,0,0-5.89-1.553c-4.25,0-6.6,2.029-6.6,4.755,0,6.594,10.81,3.17,10.81,7.514,0,1.648-1.3,2.726-4.47,2.726a10.113,10.113,0,0,1-5.93-1.87l-1.01,1.775A11.137,11.137,0,0,0,1077.4,549.566Zm27.3-16.961a7.28,7.28,0,0,0-6.34,3.3V525.884h-2.25v23.523h2.15v-3.3a7.236,7.236,0,0,0,6.44,3.456A8.482,8.482,0,0,0,1104.7,532.605Zm-0.16,14.963c-3.55,0-6.21-2.6-6.21-6.5s2.66-6.5,6.21-6.5A6.506,6.506,0,0,1,1104.54,547.568Zm18.48-14.963a10.576,10.576,0,0,0-6.78,2.251l1.01,1.68a8.524,8.524,0,0,1,5.55-1.966c3.11,0,4.73,1.554,4.73,4.407v1.014h-5.3c-4.79,0-6.43,2.156-6.43,4.724,0,2.885,2.31,4.851,6.08,4.851,2.76,0,4.73-1.047,5.74-2.759v2.6h2.16V539.072C1129.78,534.76,1127.34,532.605,1123.02,532.605Zm-0.79,15.185c-2.66,0-4.22-1.2-4.22-3.138,0-1.712,1.05-2.98,4.28-2.98h5.24V544.4A5.34,5.34,0,0,1,1122.23,547.79Zm20.32,1.776a7.351,7.351,0,0,0,6.53-3.3l-1.68-1.142a5.631,5.631,0,0,1-4.85,2.441,6.5,6.5,0,0,1,0-13,5.66,5.66,0,0,1,4.85,2.473l1.68-1.141a7.281,7.281,0,0,0-6.53-3.3A8.481,8.481,0,1,0,1142.55,549.566Zm23.27-.159h2.76l-7.8-9.859,7.13-6.817h-2.79l-9.95,9.1V525.884h-2.25v23.523h2.25v-4.755l3.93-3.614Zm19.72-8.338c0-5.009-3.39-8.464-8.08-8.464s-8.15,3.519-8.15,8.464,3.55,8.5,8.75,8.5a8.2,8.2,0,0,0,6.43-2.727l-1.26-1.458a6.587,6.587,0,0,1-5.11,2.187c-3.64,0-6.31-2.314-6.56-5.8h13.95C1185.51,541.513,1185.54,541.259,1185.54,541.069Zm-8.08-6.531a5.793,5.793,0,0,1,5.92,5.548h-11.82A5.788,5.788,0,0,1,1177.46,534.538Zm25.33-8.654V535.9a7.291,7.291,0,0,0-6.34-3.3,8.482,8.482,0,0,0,0,16.961,7.22,7.22,0,0,0,6.43-3.456v3.3h2.16V525.884h-2.25Zm-6.15,21.684c-3.55,0-6.22-2.6-6.22-6.5s2.67-6.5,6.22-6.5c3.51,0,6.18,2.6,6.18,6.5S1200.15,547.568,1196.64,547.568Zm30.94-14.963a7.268,7.268,0,0,0-6.34,3.3V525.884h-2.25v23.523h2.15v-3.3a7.225,7.225,0,0,0,6.44,3.456A8.482,8.482,0,0,0,1227.58,532.605Zm-0.16,14.963c-3.55,0-6.22-2.6-6.22-6.5s2.67-6.5,6.22-6.5A6.506,6.506,0,0,1,1227.42,547.568Zm24.06-14.837L1245.2,546.9l-6.27-14.172h-2.35l7.45,16.644-0.73,1.617c-0.95,2.093-1.96,2.79-3.45,2.79a4.181,4.181,0,0,1-3.05-1.268l-1.04,1.68a5.683,5.683,0,0,0,4.05,1.522c2.38,0,4.16-1.046,5.55-4.312l8.34-18.673h-2.22ZM8.194,570.752A1.618,1.618,0,0,0,9.843,569.1a1.6,1.6,0,0,0-1.649-1.554A1.6,1.6,0,1,0,8.194,570.752ZM7.053,591.074H9.3V574.4H7.053v16.676Zm16.707-16.8a7.008,7.008,0,0,0-6.34,3.2V574.4H15.264v16.676h2.251v-8.75c0-3.8,2.251-6.024,5.833-6.024,3.17,0,5.009,1.807,5.009,5.326v9.448h2.251V581.4C30.608,576.617,27.818,574.271,23.76,574.271Zm25.679-6.721v10.018a7.285,7.285,0,0,0-6.341-3.3,8.482,8.482,0,0,0,0,16.961,7.223,7.223,0,0,0,6.436-3.455v3.3h2.156V567.55H49.438Zm-6.15,21.685c-3.551,0-6.214-2.6-6.214-6.5s2.663-6.5,6.214-6.5c3.519,0,6.182,2.6,6.182,6.5S46.807,589.235,43.288,589.235ZM70.425,574.4v8.75c0,3.8-2.187,6.055-5.675,6.055-3.17,0-5.009-1.807-5.009-5.357V574.4H57.49v9.669c0,4.788,2.79,7.165,7.038,7.165a6.633,6.633,0,0,0,5.992-3.2v3.044h2.156V574.4H70.425Zm12.712,16.834c4.343,0,6.879-1.87,6.879-4.755,0-6.4-10.811-3.012-10.811-7.514,0-1.585,1.331-2.758,4.343-2.758a8.544,8.544,0,0,1,4.914,1.427l0.983-1.807a11.3,11.3,0,0,0-5.9-1.554c-4.248,0-6.594,2.029-6.594,4.756,0,6.594,10.811,3.17,10.811,7.513,0,1.649-1.3,2.727-4.47,2.727a10.074,10.074,0,0,1-5.928-1.871l-1.014,1.776A11.14,11.14,0,0,0,83.137,591.232Zm18.7-2.79a3.726,3.726,0,0,1-2.473.856c-1.87,0-2.885-1.077-2.885-3.043V576.3h5.072v-1.9H96.484v-3.646H94.233V574.4h-2.98v1.9h2.98v10.082c0,3.075,1.744,4.85,4.882,4.85a5.358,5.358,0,0,0,3.519-1.173Zm6.72-10.779V574.4h-2.156v16.676h2.251v-8.5c0-3.931,2.124-6.15,5.612-6.15,0.158,0,.348.032,0.538,0.032v-2.188C111.732,574.271,109.608,575.444,108.562,577.663ZM131.07,574.4l-6.277,14.171L118.516,574.4H116.17l7.45,16.644-0.729,1.617c-0.951,2.092-1.966,2.79-3.456,2.79a4.165,4.165,0,0,1-3.043-1.268l-1.046,1.68a5.707,5.707,0,0,0,4.058,1.522c2.377,0,4.153-1.047,5.548-4.312L133.29,574.4h-2.22Zm3.456,9.067h8.306V581.5h-8.306v1.965Zm13.029,7.609h2.251V567.55h-2.251v23.524Zm22.762-8.338c0-5.009-3.392-8.465-8.084-8.465s-8.147,3.519-8.147,8.465,3.55,8.5,8.749,8.5a8.209,8.209,0,0,0,6.436-2.726L168,587.048a6.573,6.573,0,0,1-5.1,2.187c-3.646,0-6.309-2.314-6.563-5.8h13.95C170.286,583.18,170.317,582.926,170.317,582.736Zm-8.084-6.531a5.8,5.8,0,0,1,5.929,5.548H156.336A5.793,5.793,0,0,1,162.233,576.205Zm17.721-1.934a10.591,10.591,0,0,0-6.784,2.251l1.014,1.68a8.5,8.5,0,0,1,5.548-1.965c3.107,0,4.724,1.553,4.724,4.407v1.014h-5.294c-4.787,0-6.436,2.156-6.436,4.724,0,2.885,2.314,4.85,6.087,4.85,2.758,0,4.724-1.046,5.738-2.758v2.6h2.156V580.739C186.707,576.427,184.266,574.271,179.954,574.271Zm-0.792,15.186c-2.663,0-4.217-1.205-4.217-3.139,0-1.712,1.047-2.98,4.28-2.98h5.231v2.727A5.335,5.335,0,0,1,179.162,589.457Zm26.376-21.907v10.018a7.284,7.284,0,0,0-6.34-3.3,8.482,8.482,0,0,0,0,16.961,7.222,7.222,0,0,0,6.435-3.455v3.3h2.156V567.55h-2.251Zm-6.15,21.685c-3.551,0-6.214-2.6-6.214-6.5s2.663-6.5,6.214-6.5c3.519,0,6.182,2.6,6.182,6.5S202.907,589.235,199.388,589.235Zm15.5-18.483a1.617,1.617,0,0,0,1.648-1.648,1.6,1.6,0,0,0-1.648-1.554A1.6,1.6,0,1,0,214.89,570.752Zm-1.141,20.322H216V574.4h-2.251v16.676Zm16.707-16.8a7.009,7.009,0,0,0-6.341,3.2V574.4h-2.156v16.676h2.251v-8.75c0-3.8,2.251-6.024,5.834-6.024,3.17,0,5.009,1.807,5.009,5.326v9.448H237.3V581.4C237.3,576.617,234.514,574.271,230.456,574.271Zm26,0.127v3.2a7.526,7.526,0,0,0-6.594-3.329c-4.755,0-8.369,3.266-8.369,8.053s3.614,8.116,8.369,8.116a7.5,7.5,0,0,0,6.5-3.234v2.124c0,4.122-1.934,6.055-6.15,6.055a9.929,9.929,0,0,1-6.563-2.282l-1.141,1.712c1.744,1.648,4.724,2.568,7.767,2.568,5.517,0,8.338-2.6,8.338-8.338V574.4h-2.156Zm-6.372,14.044a6.106,6.106,0,1,1,0-12.205c3.678,0,6.341,2.473,6.341,6.087A5.987,5.987,0,0,1,250.079,588.442Zm23.649-17.69a1.618,1.618,0,0,0,1.649-1.648,1.6,1.6,0,0,0-1.649-1.554A1.6,1.6,0,1,0,273.728,570.752Zm-1.141,20.322h2.251V574.4h-2.251v16.676Zm16.707-16.8a7.006,7.006,0,0,0-6.34,3.2V574.4H280.8v16.676h2.251v-8.75c0-3.8,2.251-6.024,5.833-6.024,3.17,0,5.009,1.807,5.009,5.326v9.448h2.251V581.4C296.142,576.617,293.352,574.271,289.294,574.271Zm18.165-4.977a3.813,3.813,0,0,1,2.473.824l0.761-1.68a5.284,5.284,0,0,0-3.329-1.046c-3.265,0-5.041,1.965-5.041,4.945V574.4h-2.98v1.9h2.98v14.774h2.251V576.3h5.073v-1.9h-5.136v-1.965C304.511,570.372,305.525,569.294,307.459,569.294Zm9.605,8.369V574.4h-2.156v16.676h2.251v-8.5c0-3.931,2.124-6.15,5.612-6.15,0.158,0,.348.032,0.538,0.032v-2.188C320.234,574.271,318.11,575.444,317.064,577.663Zm15.788-3.392a10.594,10.594,0,0,0-6.785,2.251l1.015,1.68a8.5,8.5,0,0,1,5.548-1.965c3.107,0,4.724,1.553,4.724,4.407v1.014h-5.295c-4.787,0-6.435,2.156-6.435,4.724,0,2.885,2.314,4.85,6.086,4.85,2.759,0,4.724-1.046,5.739-2.758v2.6h2.156V580.739C339.605,576.427,337.163,574.271,332.852,574.271Zm-0.793,15.186c-2.663,0-4.216-1.205-4.216-3.139,0-1.712,1.046-2.98,4.28-2.98h5.231v2.727A5.337,5.337,0,0,1,332.059,589.457Zm17.817,1.775c4.343,0,6.879-1.87,6.879-4.755,0-6.4-10.81-3.012-10.81-7.514,0-1.585,1.331-2.758,4.343-2.758a8.543,8.543,0,0,1,4.914,1.427l0.983-1.807a11.3,11.3,0,0,0-5.9-1.554c-4.248,0-6.594,2.029-6.594,4.756,0,6.594,10.81,3.17,10.81,7.513,0,1.649-1.3,2.727-4.47,2.727a10.071,10.071,0,0,1-5.928-1.871l-1.015,1.776A11.144,11.144,0,0,0,349.876,591.232Zm18.7-2.79a3.722,3.722,0,0,1-2.473.856c-1.87,0-2.885-1.077-2.885-3.043V576.3H368.3v-1.9h-5.073v-3.646h-2.251V574.4h-2.98v1.9h2.98v10.082c0,3.075,1.744,4.85,4.883,4.85a5.358,5.358,0,0,0,3.519-1.173Zm6.721-10.779V574.4h-2.156v16.676H375.4v-8.5c0-3.931,2.124-6.15,5.611-6.15,0.159,0,.349.032,0.539,0.032v-2.188C378.471,574.271,376.347,575.444,375.3,577.663Zm23.015-3.265v8.75c0,3.8-2.187,6.055-5.675,6.055-3.17,0-5.009-1.807-5.009-5.357V574.4h-2.25v9.669c0,4.788,2.789,7.165,7.038,7.165a6.632,6.632,0,0,0,5.991-3.2v3.044h2.156V574.4h-2.251Zm15.154,16.834a7.349,7.349,0,0,0,6.53-3.3l-1.68-1.141a5.641,5.641,0,0,1-4.85,2.441,6.5,6.5,0,0,1,0-13,5.667,5.667,0,0,1,4.85,2.473l1.68-1.142a7.283,7.283,0,0,0-6.53-3.3A8.481,8.481,0,1,0,413.47,591.232Zm18.8-2.79a3.726,3.726,0,0,1-2.473.856c-1.871,0-2.885-1.077-2.885-3.043V576.3h5.072v-1.9h-5.072v-3.646H424.66V574.4h-2.98v1.9h2.98v10.082c0,3.075,1.744,4.85,4.882,4.85a5.358,5.358,0,0,0,3.519-1.173ZM449.61,574.4v8.75c0,3.8-2.188,6.055-5.675,6.055-3.171,0-5.009-1.807-5.009-5.357V574.4h-2.251v9.669c0,4.788,2.79,7.165,7.038,7.165a6.634,6.634,0,0,0,5.992-3.2v3.044h2.155V574.4h-2.25Zm10.4,3.265V574.4h-2.155v16.676h2.25v-8.5c0-3.931,2.125-6.15,5.612-6.15,0.158,0,.349.032,0.539,0.032v-2.188C463.178,574.271,461.054,575.444,460.007,577.663Zm24.38,5.073c0-5.009-3.393-8.465-8.085-8.465s-8.147,3.519-8.147,8.465,3.55,8.5,8.75,8.5a8.208,8.208,0,0,0,6.435-2.726l-1.268-1.458a6.573,6.573,0,0,1-5.1,2.187c-3.646,0-6.309-2.314-6.562-5.8h13.949C484.355,583.18,484.387,582.926,484.387,582.736Zm-8.085-6.531a5.8,5.8,0,0,1,5.929,5.548H470.406A5.792,5.792,0,0,1,476.3,576.205Zm26.186-1.934a10.591,10.591,0,0,0-6.784,2.251l1.014,1.68a8.5,8.5,0,0,1,5.548-1.965c3.107,0,4.724,1.553,4.724,4.407v1.014h-5.3c-4.787,0-6.435,2.156-6.435,4.724,0,2.885,2.314,4.85,6.087,4.85,2.758,0,4.723-1.046,5.738-2.758v2.6h2.156V580.739C509.241,576.427,506.8,574.271,502.488,574.271ZM501.7,589.457c-2.663,0-4.216-1.205-4.216-3.139,0-1.712,1.046-2.98,4.28-2.98h5.231v2.727A5.336,5.336,0,0,1,501.7,589.457Zm21.843-15.186a7.006,7.006,0,0,0-6.34,3.2V574.4h-2.156v16.676h2.251v-8.75c0-3.8,2.251-6.024,5.833-6.024,3.17,0,5.009,1.807,5.009,5.326v9.448h2.251V581.4C530.386,576.617,527.6,574.271,523.538,574.271Zm25.679-6.721v10.018a7.286,7.286,0,0,0-6.341-3.3,8.482,8.482,0,0,0,0,16.961,7.223,7.223,0,0,0,6.436-3.455v3.3h2.156V567.55h-2.251Zm-6.151,21.685c-3.55,0-6.213-2.6-6.213-6.5s2.663-6.5,6.213-6.5c3.519,0,6.182,2.6,6.182,6.5S546.585,589.235,543.066,589.235Zm35.316-21.685v10.018a7.284,7.284,0,0,0-6.34-3.3,8.482,8.482,0,0,0,0,16.961,7.224,7.224,0,0,0,6.436-3.455v3.3h2.155V567.55h-2.251Zm-6.15,21.685c-3.551,0-6.214-2.6-6.214-6.5s2.663-6.5,6.214-6.5c3.519,0,6.182,2.6,6.182,6.5S575.751,589.235,572.232,589.235Zm21.177,2a8.481,8.481,0,1,0-8.5-8.5A8.2,8.2,0,0,0,593.409,591.232Zm0-2c-3.551,0-6.214-2.6-6.214-6.5s2.663-6.5,6.214-6.5,6.182,2.6,6.182,6.5S596.96,589.235,593.409,589.235Zm33.541-14.964a7.261,7.261,0,0,0-6.594,3.519c-1.014-2.346-3.17-3.519-5.928-3.519a6.743,6.743,0,0,0-6.119,3.171V574.4h-2.156v16.676H608.4v-8.75c0-3.8,2.188-6.024,5.58-6.024,3.043,0,4.819,1.807,4.819,5.326v9.448h2.251v-8.75c0-3.8,2.155-6.024,5.579-6.024,3.012,0,4.787,1.807,4.787,5.326v9.448h2.251V581.4C633.671,576.617,631.008,574.271,626.95,574.271Zm18.355,0a10.591,10.591,0,0,0-6.784,2.251l1.014,1.68a8.5,8.5,0,0,1,5.548-1.965c3.107,0,4.724,1.553,4.724,4.407v1.014h-5.294c-4.787,0-6.436,2.156-6.436,4.724,0,2.885,2.314,4.85,6.087,4.85,2.758,0,4.724-1.046,5.738-2.758v2.6h2.156V580.739C652.058,576.427,649.617,574.271,645.3,574.271Zm-0.792,15.186c-2.663,0-4.217-1.205-4.217-3.139,0-1.712,1.046-2.98,4.28-2.98h5.231v2.727A5.336,5.336,0,0,1,644.513,589.457ZM659,570.752a1.617,1.617,0,0,0,1.649-1.648A1.6,1.6,0,0,0,659,567.55,1.6,1.6,0,1,0,659,570.752Zm-1.141,20.322h2.251V574.4h-2.251v16.676Zm16.707-16.8a7.006,7.006,0,0,0-6.34,3.2V574.4H666.07v16.676h2.251v-8.75c0-3.8,2.251-6.024,5.833-6.024,3.17,0,5.009,1.807,5.009,5.326v9.448h2.251V581.4C681.414,576.617,678.624,574.271,674.566,574.271Zm33.541,16.8h2.758l-7.8-9.86L710.2,574.4h-2.79l-9.954,9.1V567.55H695.2v23.524h2.251v-4.756l3.931-3.614Zm14.076-16.8a7.009,7.009,0,0,0-6.341,3.2V574.4h-2.156v16.676h2.251v-8.75c0-3.8,2.251-6.024,5.834-6.024,3.17,0,5.009,1.807,5.009,5.326v9.448h2.25V581.4C729.03,576.617,726.241,574.271,722.183,574.271Zm19.528,16.961a8.481,8.481,0,1,0-8.5-8.5A8.2,8.2,0,0,0,741.711,591.232Zm0-2c-3.551,0-6.214-2.6-6.214-6.5s2.663-6.5,6.214-6.5,6.182,2.6,6.182,6.5S745.261,589.235,741.711,589.235ZM776.393,574.4L771.1,588.569,765.773,574.4h-1.934l-5.358,14.171L753.25,574.4H751.1l6.277,16.676H759.5l5.262-13.664,5.263,13.664h2.124l6.309-16.676h-2.061Zm5.136,16.676h2.251V567.55h-2.251v23.524Zm22.762-8.338c0-5.009-3.392-8.465-8.084-8.465s-8.148,3.519-8.148,8.465,3.551,8.5,8.75,8.5a8.209,8.209,0,0,0,6.436-2.726l-1.268-1.458a6.573,6.573,0,0,1-5.1,2.187c-3.646,0-6.309-2.314-6.563-5.8h13.949C804.259,583.18,804.291,582.926,804.291,582.736Zm-8.084-6.531a5.8,5.8,0,0,1,5.928,5.548H790.31A5.792,5.792,0,0,1,796.207,576.205Zm25.33-8.655v10.018a7.286,7.286,0,0,0-6.341-3.3,8.482,8.482,0,0,0,0,16.961,7.223,7.223,0,0,0,6.436-3.455v3.3h2.156V567.55h-2.251Zm-6.15,21.685c-3.551,0-6.214-2.6-6.214-6.5s2.663-6.5,6.214-6.5c3.519,0,6.182,2.6,6.182,6.5S818.906,589.235,815.387,589.235ZM843.031,574.4v3.2a7.528,7.528,0,0,0-6.594-3.329c-4.756,0-8.37,3.266-8.37,8.053s3.614,8.116,8.37,8.116a7.505,7.505,0,0,0,6.5-3.234v2.124c0,4.122-1.934,6.055-6.151,6.055a9.926,9.926,0,0,1-6.562-2.282l-1.141,1.712c1.743,1.648,4.723,2.568,7.767,2.568,5.516,0,8.338-2.6,8.338-8.338V574.4h-2.156Zm-6.372,14.044a6.106,6.106,0,1,1,0-12.205c3.677,0,6.34,2.473,6.34,6.087A5.986,5.986,0,0,1,836.659,588.442Zm29.07-5.706c0-5.009-3.392-8.465-8.084-8.465s-8.148,3.519-8.148,8.465,3.551,8.5,8.75,8.5a8.209,8.209,0,0,0,6.436-2.726l-1.268-1.458a6.573,6.573,0,0,1-5.1,2.187c-3.646,0-6.309-2.314-6.563-5.8H865.7C865.7,583.18,865.729,582.926,865.729,582.736Zm-8.084-6.531a5.8,5.8,0,0,1,5.929,5.548H851.748A5.793,5.793,0,0,1,857.645,576.205Zm12.617,11.572a1.659,1.659,0,0,0-1.68,1.712,1.6,1.6,0,0,0,1.141,1.616l-1.078,4.6h1.522l1.332-4.375a5.161,5.161,0,0,0,.443-1.838A1.659,1.659,0,0,0,870.262,587.777ZM906.815,574.4l-5.3,14.171L896.194,574.4H894.26L888.9,588.569,883.672,574.4h-2.156l6.277,16.676h2.124l5.263-13.664,5.263,13.664h2.124l6.308-16.676h-2.06Zm19.211,8.338c0-5.009-3.392-8.465-8.084-8.465s-8.148,3.519-8.148,8.465,3.551,8.5,8.75,8.5a8.209,8.209,0,0,0,6.436-2.726l-1.268-1.458a6.573,6.573,0,0,1-5.1,2.187c-3.646,0-6.309-2.314-6.563-5.8H926C926,583.18,926.026,582.926,926.026,582.736Zm-8.084-6.531a5.8,5.8,0,0,1,5.928,5.548H912.045A5.793,5.793,0,0,1,917.942,576.205Zm28.849-1.934a7.048,7.048,0,0,0-6.246,3.044V567.55h-2.251v23.524h2.251v-8.75c0-3.8,2.251-6.024,5.833-6.024,3.171,0,5.009,1.807,5.009,5.326v9.448h2.251V581.4C953.638,576.617,950.849,574.271,946.791,574.271Zm27.263,8.465c0-5.009-3.392-8.465-8.084-8.465s-8.148,3.519-8.148,8.465,3.551,8.5,8.75,8.5a8.209,8.209,0,0,0,6.436-2.726l-1.268-1.458a6.573,6.573,0,0,1-5.1,2.187c-3.646,0-6.309-2.314-6.563-5.8h13.949C974.022,583.18,974.054,582.926,974.054,582.736Zm-8.084-6.531a5.8,5.8,0,0,1,5.928,5.548H960.073A5.793,5.793,0,0,1,965.97,576.205Zm12.363,14.869h2.251V567.55h-2.251v23.524Zm16.8-16.8A7.264,7.264,0,0,0,988.7,577.7v-3.3h-2.156v22.826H988.8v-9.289a7.284,7.284,0,0,0,6.341,3.3A8.482,8.482,0,0,0,995.136,574.271Zm-0.159,14.964c-3.551,0-6.214-2.6-6.214-6.5A6.22,6.22,0,1,1,994.977,589.235Zm27.553,2a8.481,8.481,0,1,0-8.5-8.5A8.2,8.2,0,0,0,1022.53,591.232Zm0-2c-3.55,0-6.22-2.6-6.22-6.5s2.67-6.5,6.22-6.5,6.18,2.6,6.18,6.5S1026.08,589.235,1022.53,589.235Zm25.52-14.837v8.75c0,3.8-2.19,6.055-5.68,6.055-3.17,0-5.01-1.807-5.01-5.357V574.4h-2.25v9.669c0,4.788,2.79,7.165,7.04,7.165a6.63,6.63,0,0,0,5.99-3.2v3.044h2.16V574.4h-2.25Zm10.39,3.265V574.4h-2.15v16.676h2.25v-8.5c0-3.931,2.12-6.15,5.61-6.15,0.16,0,.35.032,0.54,0.032v-2.188C1061.61,574.271,1059.49,575.444,1058.44,577.663Zm25.14,13.569a7.338,7.338,0,0,0,6.53-3.3l-1.68-1.141a5.631,5.631,0,0,1-4.85,2.441,6.5,6.5,0,0,1,0-13,5.657,5.657,0,0,1,4.85,2.473l1.68-1.142a7.272,7.272,0,0,0-6.53-3.3A8.481,8.481,0,1,0,1083.58,591.232Zm10.37-.158h2.25V567.55h-2.25v23.524Zm9.35-20.322a1.619,1.619,0,0,0,1.65-1.648,1.6,1.6,0,0,0-1.65-1.554A1.6,1.6,0,1,0,1103.3,570.752Zm-1.14,20.322h2.25V574.4h-2.25v16.676Zm22.76-8.338c0-5.009-3.39-8.465-8.08-8.465s-8.15,3.519-8.15,8.465,3.55,8.5,8.75,8.5a8.221,8.221,0,0,0,6.44-2.726l-1.27-1.458a6.587,6.587,0,0,1-5.11,2.187c-3.64,0-6.3-2.314-6.56-5.8h13.95C1124.89,583.18,1124.92,582.926,1124.92,582.736Zm-8.08-6.531a5.808,5.808,0,0,1,5.93,5.548h-11.83A5.8,5.8,0,0,1,1116.84,576.205Zm20.86-1.934a7,7,0,0,0-6.34,3.2V574.4h-2.16v16.676h2.25v-8.75c0-3.8,2.25-6.024,5.84-6.024,3.17,0,5.01,1.807,5.01,5.326v9.448h2.25V581.4C1144.55,576.617,1141.76,574.271,1137.7,574.271Zm20.64,14.171a3.752,3.752,0,0,1-2.48.856c-1.87,0-2.88-1.077-2.88-3.043V576.3h5.07v-1.9h-5.07v-3.646h-2.25V574.4h-2.98v1.9h2.98v10.082c0,3.075,1.74,4.85,4.88,4.85a5.365,5.365,0,0,0,3.52-1.173Zm9.03,2.79c4.34,0,6.88-1.87,6.88-4.755,0-6.4-10.81-3.012-10.81-7.514,0-1.585,1.33-2.758,4.34-2.758a8.549,8.549,0,0,1,4.92,1.427l0.98-1.807a11.289,11.289,0,0,0-5.9-1.554c-4.24,0-6.59,2.029-6.59,4.756,0,6.594,10.81,3.17,10.81,7.513,0,1.649-1.3,2.727-4.47,2.727a10.066,10.066,0,0,1-5.93-1.871l-1.01,1.776A11.115,11.115,0,0,0,1167.37,591.232Zm26.69-2.79a3.707,3.707,0,0,1-2.47.856c-1.87,0-2.88-1.077-2.88-3.043V576.3h5.07v-1.9h-5.07v-3.646h-2.25V574.4h-2.98v1.9h2.98v10.082c0,3.075,1.74,4.85,4.88,4.85a5.365,5.365,0,0,0,3.52-1.173Zm10.78,2.79a8.481,8.481,0,1,0-8.49-8.5A8.2,8.2,0,0,0,1204.84,591.232Zm0-2c-3.55,0-6.21-2.6-6.21-6.5s2.66-6.5,6.21-6.5,6.19,2.6,6.19,6.5S1208.39,589.235,1204.84,589.235ZM12.886,615.938A10.586,10.586,0,0,0,6.1,618.189l1.014,1.68a8.493,8.493,0,0,1,5.548-1.965c3.107,0,4.724,1.553,4.724,4.406v1.015H12.093c-4.787,0-6.436,2.155-6.436,4.723,0,2.885,2.314,4.851,6.087,4.851,2.758,0,4.724-1.046,5.738-2.758v2.6h2.156V622.405C19.639,618.094,17.2,615.938,12.886,615.938Zm-0.793,15.186c-2.663,0-4.216-1.205-4.216-3.139,0-1.712,1.046-2.98,4.28-2.98h5.231v2.726A5.335,5.335,0,0,1,12.093,631.124ZM32.414,632.9a7.351,7.351,0,0,0,6.531-3.3l-1.68-1.141a5.641,5.641,0,0,1-4.851,2.441,6.5,6.5,0,0,1,0-13,5.669,5.669,0,0,1,4.851,2.472l1.68-1.141a7.284,7.284,0,0,0-6.531-3.3A8.481,8.481,0,1,0,32.414,632.9Zm18.863-16.961a7.049,7.049,0,0,0-6.245,3.043v-9.764H42.781V632.74h2.251v-8.75c0-3.8,2.251-6.023,5.833-6.023,3.17,0,5.009,1.807,5.009,5.326v9.447h2.251v-9.669C58.125,618.284,55.335,615.938,51.277,615.938Zm13.79-3.519a1.618,1.618,0,0,0,1.648-1.649,1.6,1.6,0,0,0-1.648-1.553A1.6,1.6,0,1,0,65.067,612.419ZM63.926,632.74h2.251V616.065H63.926V632.74ZM86.688,624.4c0-5.009-3.392-8.465-8.084-8.465s-8.148,3.519-8.148,8.465,3.551,8.5,8.75,8.5a8.209,8.209,0,0,0,6.436-2.726l-1.268-1.459a6.571,6.571,0,0,1-5.1,2.188c-3.646,0-6.309-2.315-6.562-5.8H86.657C86.657,624.846,86.688,624.593,86.688,624.4ZM78.6,617.872a5.8,5.8,0,0,1,5.928,5.548H72.707A5.792,5.792,0,0,1,78.6,617.872Zm23.84-1.807-6.309,14.2-6.245-14.2H87.544l7.387,16.675h2.314l7.418-16.675h-2.219Zm19.148,8.338c0-5.009-3.392-8.465-8.084-8.465s-8.148,3.519-8.148,8.465,3.551,8.5,8.75,8.5a8.209,8.209,0,0,0,6.436-2.726l-1.268-1.459a6.571,6.571,0,0,1-5.1,2.188c-3.646,0-6.309-2.315-6.563-5.8H121.56C121.56,624.846,121.592,624.593,121.592,624.4Zm-8.084-6.531a5.8,5.8,0,0,1,5.928,5.548H107.611A5.792,5.792,0,0,1,113.508,617.872ZM140.676,632.9a8.481,8.481,0,1,0-8.5-8.5A8.2,8.2,0,0,0,140.676,632.9Zm0-2c-3.551,0-6.214-2.6-6.214-6.5s2.663-6.5,6.214-6.5,6.182,2.6,6.182,6.5S144.227,630.9,140.676,630.9Zm14.9-11.572v-3.265H153.42V632.74h2.251v-8.5c0-3.931,2.124-6.15,5.612-6.15,0.158,0,.348.031,0.539,0.031v-2.187C158.746,615.938,156.622,617.111,155.576,619.33Zm23.111-3.265v3.2a7.524,7.524,0,0,0-6.594-3.329c-4.755,0-8.369,3.265-8.369,8.052s3.614,8.116,8.369,8.116a7.5,7.5,0,0,0,6.5-3.233V631c0,4.121-1.934,6.055-6.15,6.055a9.924,9.924,0,0,1-6.563-2.283l-1.141,1.712c1.744,1.649,4.724,2.568,7.767,2.568,5.517,0,8.338-2.6,8.338-8.338V616.065h-2.156Zm-6.372,14.044a6.106,6.106,0,1,1,0-12.205c3.678,0,6.341,2.472,6.341,6.086A5.987,5.987,0,0,1,172.315,630.109Zm20.353-14.171a10.586,10.586,0,0,0-6.785,2.251l1.015,1.68a8.492,8.492,0,0,1,5.548-1.965c3.107,0,4.723,1.553,4.723,4.406v1.015h-5.294c-4.787,0-6.436,2.155-6.436,4.723,0,2.885,2.315,4.851,6.087,4.851,2.758,0,4.724-1.046,5.738-2.758v2.6h2.156V622.405C199.42,618.094,196.979,615.938,192.668,615.938Zm-0.793,15.186c-2.663,0-4.216-1.205-4.216-3.139,0-1.712,1.046-2.98,4.279-2.98h5.231v2.726A5.334,5.334,0,0,1,191.875,631.124Zm21.843-15.186a7.009,7.009,0,0,0-6.341,3.2v-3.075h-2.156V632.74h2.251v-8.75c0-3.8,2.251-6.023,5.834-6.023,3.17,0,5.009,1.807,5.009,5.326v9.447h2.251v-9.669C220.566,618.284,217.776,615.938,213.718,615.938Zm13.79-3.519a1.617,1.617,0,0,0,1.648-1.649,1.6,1.6,0,0,0-1.648-1.553A1.6,1.6,0,1,0,227.508,612.419Zm-1.142,20.321h2.251V616.065h-2.251V632.74Zm9.289-1.87,10.494-13.315v-1.49H232.96v1.9h10.3L232.77,631.25v1.49h13.569v-1.87H235.655Zm20.638-14.932a10.585,10.585,0,0,0-6.784,2.251l1.014,1.68a8.492,8.492,0,0,1,5.548-1.965c3.107,0,4.724,1.553,4.724,4.406v1.015h-5.3c-4.787,0-6.435,2.155-6.435,4.723,0,2.885,2.314,4.851,6.087,4.851,2.758,0,4.723-1.046,5.738-2.758v2.6h2.156V622.405C263.046,618.094,260.605,615.938,256.293,615.938ZM255.5,631.124c-2.663,0-4.216-1.205-4.216-3.139,0-1.712,1.046-2.98,4.28-2.98H260.8v2.726A5.335,5.335,0,0,1,255.5,631.124Zm21.336-1.015a3.722,3.722,0,0,1-2.473.856c-1.87,0-2.885-1.078-2.885-3.043v-9.955h5.073v-1.9h-5.073v-3.646h-2.251v3.646h-2.98v1.9h2.98v10.081c0,3.076,1.744,4.851,4.883,4.851a5.36,5.36,0,0,0,3.519-1.173Zm5.706-17.69a1.618,1.618,0,0,0,1.649-1.649,1.6,1.6,0,0,0-1.649-1.553A1.6,1.6,0,1,0,282.542,612.419ZM281.4,632.74h2.251V616.065H281.4V632.74Zm15.027,0.159a8.481,8.481,0,1,0-8.5-8.5A8.2,8.2,0,0,0,296.428,632.9Zm0-2c-3.551,0-6.214-2.6-6.214-6.5s2.663-6.5,6.214-6.5,6.182,2.6,6.182,6.5S299.978,630.9,296.428,630.9Zm21.24-14.964a7.006,7.006,0,0,0-6.34,3.2v-3.075h-2.156V632.74h2.251v-8.75c0-3.8,2.251-6.023,5.833-6.023,3.17,0,5.009,1.807,5.009,5.326v9.447h2.251v-9.669C324.516,618.284,321.726,615.938,317.668,615.938Zm18.482,0a10.585,10.585,0,0,0-6.784,2.251l1.014,1.68a8.5,8.5,0,0,1,5.548-1.965c3.107,0,4.724,1.553,4.724,4.406v1.015h-5.294c-4.787,0-6.436,2.155-6.436,4.723,0,2.885,2.314,4.851,6.087,4.851,2.758,0,4.724-1.046,5.738-2.758v2.6H342.9V622.405C342.9,618.094,340.462,615.938,336.15,615.938Zm-0.792,15.186c-2.663,0-4.217-1.205-4.217-3.139,0-1.712,1.046-2.98,4.28-2.98h5.231v2.726A5.335,5.335,0,0,1,335.358,631.124ZM348.7,632.74h2.251V609.217H348.7V632.74ZM371.72,632.9a8.481,8.481,0,1,0-8.5-8.5A8.2,8.2,0,0,0,371.72,632.9Zm0-2c-3.551,0-6.214-2.6-6.214-6.5s2.663-6.5,6.214-6.5,6.182,2.6,6.182,6.5S375.271,630.9,371.72,630.9Zm21.335-14.964a7.282,7.282,0,0,0-6.34,3.3V609.217h-2.251V632.74h2.156v-3.3a7.222,7.222,0,0,0,6.435,3.456A8.482,8.482,0,0,0,393.055,615.938ZM392.9,630.9c-3.551,0-6.214-2.6-6.214-6.5s2.663-6.5,6.214-6.5A6.506,6.506,0,0,1,392.9,630.9Zm14.044-18.483a1.617,1.617,0,0,0,1.648-1.649,1.6,1.6,0,0,0-1.648-1.553A1.6,1.6,0,1,0,406.941,612.419Zm-3.773,26.63c3.17,0,4.882-2,4.882-5.072V616.065H405.8v17.912c0,2.061-.982,3.138-2.758,3.138a3.888,3.888,0,0,1-2.6-.856l-0.793,1.712A5.477,5.477,0,0,0,403.168,639.049ZM428.562,624.4c0-5.009-3.393-8.465-8.085-8.465s-8.147,3.519-8.147,8.465,3.55,8.5,8.75,8.5a8.208,8.208,0,0,0,6.435-2.726l-1.268-1.459a6.571,6.571,0,0,1-5.1,2.188c-3.646,0-6.309-2.315-6.562-5.8H428.53C428.53,624.846,428.562,624.593,428.562,624.4Zm-8.085-6.531a5.8,5.8,0,0,1,5.929,5.548H414.581A5.791,5.791,0,0,1,420.477,617.872ZM439.752,632.9a7.352,7.352,0,0,0,6.531-3.3l-1.681-1.141a5.639,5.639,0,0,1-4.85,2.441,6.5,6.5,0,0,1,0-13,5.667,5.667,0,0,1,4.85,2.472l1.681-1.141a7.286,7.286,0,0,0-6.531-3.3A8.481,8.481,0,1,0,439.752,632.9Zm18.8-2.79a3.722,3.722,0,0,1-2.473.856c-1.87,0-2.885-1.078-2.885-3.043v-9.955h5.073v-1.9h-5.073v-3.646h-2.251v3.646h-2.98v1.9h2.98v10.081c0,3.076,1.744,4.851,4.883,4.851a5.36,5.36,0,0,0,3.519-1.173Zm5.706-17.69a1.618,1.618,0,0,0,1.649-1.649,1.6,1.6,0,0,0-1.649-1.553A1.6,1.6,0,1,0,464.257,612.419Zm-1.141,20.321h2.251V616.065h-2.251V632.74Zm20-16.675-6.309,14.2-6.245-14.2H468.22l7.386,16.675h2.315l7.418-16.675H483.12Zm19.148,8.338c0-5.009-3.392-8.465-8.084-8.465s-8.148,3.519-8.148,8.465,3.551,8.5,8.75,8.5a8.211,8.211,0,0,0,6.436-2.726l-1.268-1.459a6.572,6.572,0,0,1-5.1,2.188c-3.646,0-6.309-2.315-6.563-5.8h13.949C502.236,624.846,502.268,624.593,502.268,624.4Zm-8.084-6.531a5.8,5.8,0,0,1,5.928,5.548H488.287A5.792,5.792,0,0,1,494.184,617.872ZM511.017,632.9c4.344,0,6.88-1.87,6.88-4.755,0-6.4-10.811-3.012-10.811-7.514,0-1.585,1.332-2.758,4.343-2.758a8.55,8.55,0,0,1,4.914,1.426l0.983-1.807a11.3,11.3,0,0,0-5.9-1.553c-4.248,0-6.594,2.029-6.594,4.755,0,6.6,10.811,3.171,10.811,7.514,0,1.649-1.3,2.726-4.47,2.726a10.077,10.077,0,0,1-5.929-1.87l-1.014,1.775A11.139,11.139,0,0,0,511.017,632.9Zm24.538-16.961a10.586,10.586,0,0,0-6.785,2.251l1.015,1.68a8.492,8.492,0,0,1,5.548-1.965c3.107,0,4.723,1.553,4.723,4.406v1.015h-5.294c-4.787,0-6.436,2.155-6.436,4.723,0,2.885,2.315,4.851,6.087,4.851,2.758,0,4.724-1.046,5.739-2.758v2.6h2.155V622.405C542.307,618.094,539.866,615.938,535.555,615.938Zm-0.793,15.186c-2.663,0-4.216-1.205-4.216-3.139,0-1.712,1.046-2.98,4.279-2.98h5.231v2.726A5.334,5.334,0,0,1,534.762,631.124Zm21.843-15.186a7.009,7.009,0,0,0-6.341,3.2v-3.075h-2.155V632.74h2.25v-8.75c0-3.8,2.251-6.023,5.834-6.023,3.17,0,5.009,1.807,5.009,5.326v9.447h2.251v-9.669C563.453,618.284,560.663,615.938,556.605,615.938Zm25.678-6.721v10.018a7.282,7.282,0,0,0-6.34-3.3,8.482,8.482,0,0,0,0,16.961,7.225,7.225,0,0,0,6.436-3.456v3.3h2.155V609.217h-2.251Zm-6.15,21.685c-3.551,0-6.214-2.6-6.214-6.5s2.663-6.5,6.214-6.5c3.519,0,6.182,2.6,6.182,6.5S579.652,630.9,576.133,630.9Zm29.261,2a7.352,7.352,0,0,0,6.531-3.3l-1.681-1.141a5.639,5.639,0,0,1-4.85,2.441,6.5,6.5,0,0,1,0-13,5.667,5.667,0,0,1,4.85,2.472l1.681-1.141a7.286,7.286,0,0,0-6.531-3.3A8.481,8.481,0,1,0,605.394,632.9Zm17.151,0a8.481,8.481,0,1,0-8.5-8.5A8.2,8.2,0,0,0,622.545,632.9Zm0-2c-3.551,0-6.214-2.6-6.214-6.5s2.663-6.5,6.214-6.5,6.182,2.6,6.182,6.5S626.1,630.9,622.545,630.9Zm21.24-14.964a7.007,7.007,0,0,0-6.34,3.2v-3.075h-2.156V632.74h2.251v-8.75c0-3.8,2.251-6.023,5.833-6.023,3.171,0,5.009,1.807,5.009,5.326v9.447h2.251v-9.669C650.633,618.284,647.843,615.938,643.785,615.938Zm21.145,0a7.007,7.007,0,0,0-6.34,3.2v-3.075h-2.156V632.74h2.251v-8.75c0-3.8,2.251-6.023,5.833-6.023,3.171,0,5.009,1.807,5.009,5.326v9.447h2.251v-9.669C671.778,618.284,668.988,615.938,664.93,615.938Zm27.264,8.465c0-5.009-3.392-8.465-8.084-8.465s-8.148,3.519-8.148,8.465,3.551,8.5,8.75,8.5a8.211,8.211,0,0,0,6.436-2.726l-1.268-1.459a6.571,6.571,0,0,1-5.1,2.188c-3.646,0-6.309-2.315-6.563-5.8h13.949C692.162,624.846,692.194,624.593,692.194,624.4Zm-8.084-6.531a5.8,5.8,0,0,1,5.928,5.548H678.213A5.792,5.792,0,0,1,684.11,617.872ZM703.384,632.9a7.35,7.35,0,0,0,6.531-3.3l-1.68-1.141a5.641,5.641,0,0,1-4.851,2.441,6.5,6.5,0,0,1,0-13,5.669,5.669,0,0,1,4.851,2.472l1.68-1.141a7.283,7.283,0,0,0-6.531-3.3A8.481,8.481,0,1,0,703.384,632.9Zm18.8-2.79a3.722,3.722,0,0,1-2.472.856c-1.871,0-2.885-1.078-2.885-3.043v-9.955H721.9v-1.9h-5.072v-3.646h-2.251v3.646H711.6v1.9h2.98v10.081c0,3.076,1.743,4.851,4.882,4.851a5.358,5.358,0,0,0,3.519-1.173Zm21.145-14.171a7.282,7.282,0,0,0-6.34,3.3V609.217h-2.251V632.74h2.156v-3.3a7.222,7.222,0,0,0,6.435,3.456A8.482,8.482,0,0,0,743.328,615.938ZM743.17,630.9c-3.551,0-6.214-2.6-6.214-6.5s2.663-6.5,6.214-6.5A6.506,6.506,0,0,1,743.17,630.9Zm27.3-6.5c0-5.009-3.392-8.465-8.084-8.465s-8.147,3.519-8.147,8.465,3.55,8.5,8.75,8.5a8.208,8.208,0,0,0,6.435-2.726l-1.268-1.459a6.571,6.571,0,0,1-5.1,2.188c-3.646,0-6.309-2.315-6.563-5.8h13.95C770.434,624.846,770.465,624.593,770.465,624.4Zm-8.084-6.531a5.8,5.8,0,0,1,5.929,5.548H756.484A5.793,5.793,0,0,1,762.381,617.872Zm20.353,12.237a3.724,3.724,0,0,1-2.473.856c-1.871,0-2.885-1.078-2.885-3.043v-9.955h5.072v-1.9h-5.072v-3.646h-2.251v3.646h-2.98v1.9h2.98v10.081c0,3.076,1.744,4.851,4.882,4.851a5.356,5.356,0,0,0,3.519-1.173Zm12.11,0a3.722,3.722,0,0,1-2.473.856c-1.87,0-2.885-1.078-2.885-3.043v-9.955h5.073v-1.9h-5.073v-3.646h-2.251v3.646h-2.98v1.9h2.98v10.081c0,3.076,1.744,4.851,4.883,4.851a5.36,5.36,0,0,0,3.519-1.173Zm18.514-5.706c0-5.009-3.392-8.465-8.084-8.465s-8.148,3.519-8.148,8.465,3.551,8.5,8.75,8.5a8.209,8.209,0,0,0,6.436-2.726l-1.268-1.459a6.571,6.571,0,0,1-5.1,2.188c-3.646,0-6.309-2.315-6.563-5.8h13.949C813.326,624.846,813.358,624.593,813.358,624.4Zm-8.084-6.531a5.8,5.8,0,0,1,5.928,5.548H799.377A5.792,5.792,0,0,1,805.274,617.872Zm14.519,1.458v-3.265h-2.156V632.74h2.251v-8.5c0-3.931,2.124-6.15,5.612-6.15,0.158,0,.348.031,0.538,0.031v-2.187C822.963,615.938,820.839,617.111,819.793,619.33Zm40.642-3.265-5.294,14.171-5.326-14.171h-1.934l-5.358,14.171-5.231-14.171h-2.156l6.277,16.675h2.125l5.262-13.663,5.263,13.663h2.124l6.309-16.675h-2.061Zm6.277-3.646a1.617,1.617,0,0,0,1.648-1.649,1.6,1.6,0,0,0-1.648-1.553A1.6,1.6,0,1,0,866.712,612.419Zm-1.141,20.321h2.25V616.065h-2.25V632.74Zm16.2-2.631a3.722,3.722,0,0,1-2.472.856c-1.871,0-2.885-1.078-2.885-3.043v-9.955h5.072v-1.9h-5.072v-3.646h-2.251v3.646h-2.98v1.9h2.98v10.081c0,3.076,1.743,4.851,4.882,4.851a5.358,5.358,0,0,0,3.519-1.173Zm13.061-14.171a7.048,7.048,0,0,0-6.245,3.043v-9.764h-2.251V632.74h2.251v-8.75c0-3.8,2.251-6.023,5.833-6.023,3.171,0,5.009,1.807,5.009,5.326v9.447h2.251v-9.669C901.679,618.284,898.889,615.938,894.831,615.938Zm28.627,14.171a3.722,3.722,0,0,1-2.473.856c-1.87,0-2.885-1.078-2.885-3.043v-9.955h5.073v-1.9H918.1v-3.646h-2.251v3.646h-2.98v1.9h2.98v10.081c0,3.076,1.744,4.851,4.883,4.851a5.36,5.36,0,0,0,3.519-1.173Zm13.061-14.171a7.047,7.047,0,0,0-6.245,3.043v-9.764h-2.251V632.74h2.251v-8.75c0-3.8,2.251-6.023,5.833-6.023,3.17,0,5.009,1.807,5.009,5.326v9.447h2.251v-9.669C943.367,618.284,940.577,615.938,936.519,615.938Zm27.264,8.465c0-5.009-3.393-8.465-8.085-8.465s-8.147,3.519-8.147,8.465,3.55,8.5,8.75,8.5a8.208,8.208,0,0,0,6.435-2.726l-1.268-1.459a6.571,6.571,0,0,1-5.1,2.188c-3.646,0-6.309-2.315-6.562-5.8h13.949C963.751,624.846,963.783,624.593,963.783,624.4Zm-8.085-6.531a5.8,5.8,0,0,1,5.929,5.548H949.8A5.791,5.791,0,0,1,955.7,617.872Zm13.5-5.453a1.618,1.618,0,0,0,1.649-1.649,1.6,1.6,0,0,0-1.649-1.553A1.6,1.6,0,1,0,969.2,612.419Zm-1.141,20.321h2.251V616.065h-2.251V632.74Zm10.366-13.41v-3.265h-2.155V632.74h2.251v-8.5c0-3.931,2.124-6.15,5.611-6.15,0.159,0,.349.031,0.539,0.031v-2.187C981.6,615.938,979.475,617.111,978.428,619.33ZM1003.57,632.9a7.349,7.349,0,0,0,6.53-3.3l-1.68-1.141a5.643,5.643,0,0,1-4.85,2.441,6.5,6.5,0,0,1,0-13,5.671,5.671,0,0,1,4.85,2.472l1.68-1.141a7.283,7.283,0,0,0-6.53-3.3A8.481,8.481,0,1,0,1003.57,632.9Zm23.39-16.834v8.75c0,3.8-2.18,6.055-5.67,6.055-3.17,0-5.01-1.807-5.01-5.358v-9.447h-2.25v9.669c0,4.787,2.79,7.165,7.04,7.165a6.63,6.63,0,0,0,5.99-3.2v3.043h2.15V616.065h-2.25Zm12.72,16.834c4.34,0,6.88-1.87,6.88-4.755,0-6.4-10.82-3.012-10.82-7.514,0-1.585,1.34-2.758,4.35-2.758A8.546,8.546,0,0,1,1045,619.3l0.98-1.807a11.278,11.278,0,0,0-5.89-1.553c-4.25,0-6.6,2.029-6.6,4.755,0,6.6,10.81,3.171,10.81,7.514,0,1.649-1.3,2.726-4.47,2.726a10.057,10.057,0,0,1-5.92-1.87l-1.02,1.775A11.147,11.147,0,0,0,1039.68,632.9Zm18.7-2.79a3.707,3.707,0,0,1-2.47.856c-1.87,0-2.89-1.078-2.89-3.043v-9.955h5.08v-1.9h-5.08v-3.646h-2.25v3.646h-2.98v1.9h2.98v10.081c0,3.076,1.75,4.851,4.88,4.851a5.346,5.346,0,0,0,3.52-1.173Zm10.78,2.79a8.481,8.481,0,1,0-8.5-8.5A8.2,8.2,0,0,0,1069.16,632.9Zm0-2c-3.55,0-6.21-2.6-6.21-6.5s2.66-6.5,6.21-6.5,6.18,2.6,6.18,6.5S1072.71,630.9,1069.16,630.9Zm33.54-14.964a7.251,7.251,0,0,0-6.59,3.519c-1.02-2.346-3.17-3.519-5.93-3.519a6.743,6.743,0,0,0-6.12,3.17v-3.043h-2.16V632.74h2.25v-8.75c0-3.8,2.19-6.023,5.58-6.023,3.05,0,4.82,1.807,4.82,5.326v9.447h2.25v-8.75c0-3.8,2.16-6.023,5.58-6.023,3.01,0,4.79,1.807,4.79,5.326v9.447h2.25v-9.669C1109.42,618.284,1106.76,615.938,1102.7,615.938Zm27.14,8.465c0-5.009-3.4-8.465-8.09-8.465s-8.14,3.519-8.14,8.465,3.55,8.5,8.75,8.5a8.2,8.2,0,0,0,6.43-2.726l-1.27-1.459a6.564,6.564,0,0,1-5.1,2.188c-3.65,0-6.31-2.315-6.56-5.8h13.95C1129.81,624.846,1129.84,624.593,1129.84,624.4Zm-8.09-6.531a5.8,5.8,0,0,1,5.93,5.548h-11.82A5.785,5.785,0,0,1,1121.75,617.872Zm14.52,1.458v-3.265h-2.15V632.74h2.25v-8.5c0-3.931,2.12-6.15,5.61-6.15,0.16,0,.35.031,0.54,0.031v-2.187C1139.44,615.938,1137.32,617.111,1136.27,619.33Zm14.58,13.569c4.35,0,6.88-1.87,6.88-4.755,0-6.4-10.81-3.012-10.81-7.514,0-1.585,1.33-2.758,4.35-2.758a8.546,8.546,0,0,1,4.91,1.426l0.98-1.807a11.278,11.278,0,0,0-5.89-1.553c-4.25,0-6.6,2.029-6.6,4.755,0,6.6,10.81,3.171,10.81,7.514,0,1.649-1.3,2.726-4.47,2.726a10.113,10.113,0,0,1-5.93-1.87l-1.01,1.775A11.137,11.137,0,0,0,1150.85,632.9Zm10.94,0a1.73,1.73,0,0,0,1.71-1.744,1.7,1.7,0,0,0-1.71-1.712,1.678,1.678,0,0,0-1.68,1.712A1.705,1.705,0,0,0,1161.79,632.9Z"/>
  <path id="_THE_MOVE" data-name=" THE MOVE" class="cls-2" d="M52.335,372.846h55.418V251.307h48.138v-43.02H4.2v43.02H52.335V372.846ZM276.81,208.287v58.3H225.619v-58.3H170.2V372.846h55.418V312.194H276.81v60.652h55.417V208.287H276.81ZM413.458,331V309.373h69.506V269.409H413.458V250.132h79.134V208.287H358.979V372.846H495.645V331H413.458Zm371.227,41.845-0.469-164.559H738.661l-52.13,87.687-53.539-87.687H587.437V372.846h50.486V300.44l35.693,57.6h24.421l35.692-60.182,0.47,74.992h50.486Zm112.931,3.762c53.539,0,92.754-36.2,92.754-86.041s-39.215-86.041-92.754-86.041-92.754,36.2-92.754,86.041S844.077,376.608,897.616,376.608Zm0-44.9c-20.43,0-36.867-15.515-36.867-41.139s16.437-41.14,36.867-41.14,36.867,15.515,36.867,41.14S918.045,331.706,897.616,331.706ZM1125.85,208.287l-40.16,96.15-39.21-96.15H986.833l69.507,164.559h54.48l69.5-164.559h-54.47ZM1240.19,331V309.373h69.51V269.409h-69.51V250.132h79.13V208.287H1185.71V372.846h136.67V331h-82.19Z"/>
  <path id="DESIGN_ON" data-name="DESIGN ON" class="cls-1" d="M4.892,168.867h81.1c55.008,0,92.855-31.265,92.855-82.277S141,4.313,85.993,4.313H4.892V168.867ZM60.37,125.613V47.568H83.642c23.273,0,39.258,13.869,39.258,39.023s-15.985,39.023-39.258,39.023H60.37Zm193.236,1.41V105.4h69.582V65.433H253.606V46.157h79.221V4.313H199.068V168.867H335.883V127.023H253.606Zm165.025,45.6c51.012,0,76.635-25.388,76.635-55.478,0-60.65-90.974-44.194-90.974-63.941,0-5.642,5.171-10.343,21.392-10.343,14.339,0,29.619,4,45.84,12.224l16.69-40.2c-17.161-9.638-39.963-14.34-62.06-14.34-51.012,0-76.635,24.918-76.635,55.478,0,61.355,90.974,44.665,90.974,65.352,0,5.641-5.641,8.933-21.392,8.933-18.1,0-38.787-5.877-54.3-15.045L346.933,155.7C363.388,165.811,391.127,172.628,418.631,172.628Zm93.094-3.761H567.2V4.313H511.725V168.867Zm191.118-45.135a51.65,51.65,0,0,1-20.217,4c-23.742,0-39.257-16.456-39.257-41.139,0-25.388,15.515-41.138,39.963-41.138,14.574,0,26.563,6.112,36.907,18.1l35.5-31.265C739.045,11.836,712.951.552,680.511,0.552c-54.3,0-93.091,35.5-93.091,86.038s38.788,86.038,91.915,86.038c24.213,0,51.717-7.287,71.7-20.921V82.124H702.843v41.608ZM882.916,4.313V79.068L820.386,4.313H774.781V168.867h54.068V94.113l62.53,74.754h45.605V4.313H882.916ZM1120.58,172.628c53.6,0,92.86-36.2,92.86-86.038S1174.18,0.552,1120.58.552s-92.86,36.2-92.86,86.038S1066.98,172.628,1120.58,172.628Zm0-44.9c-20.45,0-36.91-15.515-36.91-41.139s16.46-41.138,36.91-41.138,36.91,15.515,36.91,41.139S1141.03,127.729,1120.58,127.729ZM1341.79,4.313V79.068L1279.26,4.313h-45.6V168.867h54.06V94.113l62.53,74.754h45.61V4.313h-54.07Z"/>
</svg>
