<?xml version="1.0" encoding="utf-8"?>
<!-- Generator: Adobe Illustrator 24.0.0, SVG Export Plug-In . SVG Version: 6.00 Build 0)  -->
<svg version="1.1" id="Layer_1" xmlns="http://www.w3.org/2000/svg" xmlns:xlink="http://www.w3.org/1999/xlink" x="0px" y="0px"
	 width="75.3px" height="47.8px" viewBox="0 0 75.3 47.8" style="enable-background:new 0 0 75.3 47.8;" xml:space="preserve">
<style type="text/css">
	.st0{fill:#FFFFFF;}
</style>
<g id="logo">
	<path class="st0" d="M75.1,0h-7.2c-0.1,0-0.2,0.1-0.2,0.2v28.5c0,6.3-5.1,11.5-11.5,11.5c-0.9,0-1.8-0.1-2.7-0.2h0L53,39.8l0,0
		l-0.4-0.1l0,0c-0.7-0.2-1.5-0.5-2.2-0.9l0,0h-0.1c-0.6-0.3-1.2-0.7-1.8-1.1c-0.5-0.3-0.9-0.7-1.3-1.1c-0.1-0.1-0.3-0.1-0.4,0
		c0,0-0.1,0.1-0.1,0.1L44.9,44c0,0.2,0,0.4,0.2,0.5c0.4,0.3,0.8,0.6,1.3,0.8l0,0c2.9,1.6,6.2,2.5,9.5,2.5h0.3
		c4.1,0,8.2-1.3,11.5-3.8v3.6c0,0.1,0.1,0.2,0.2,0.2h7.2c0.1,0,0.2-0.1,0.2-0.2V0.2C75.3,0.1,75.2,0,75.1,0z"/>
	<path class="st0" d="M0.2,47.8h7.2c0.1,0,0.2-0.1,0.2-0.2V28.7c0-6.3,5.1-11.5,11.5-11.5l0,0c0.9,0,1.8,0.1,2.7,0.2h0l0.4,0.1l0,0
		l0.4,0.1l0,0c0.7,0.2,1.5,0.5,2.1,0.9l0,0h0.1c0.6,0.3,1.2,0.7,1.8,1.1c0.5,0.4,0.9,0.8,1.3,1.2c0.1,0.1,0.3,0.1,0.4,0
		c0,0,0.1-0.1,0.1-0.1l1.9-7.3c0-0.2,0-0.4-0.2-0.5c-0.4-0.3-0.8-0.6-1.2-0.9l0,0c-2.9-1.6-6.2-2.5-9.5-2.5h-0.3
		c-4.1,0-8.2,1.4-11.5,3.9V9.8c0-0.1-0.1-0.2-0.2-0.2l0,0H0.2C0.1,9.6,0,9.7,0,9.8c0,0,0,0,0,0v37.8C0,47.7,0.1,47.8,0.2,47.8
		C0.2,47.8,0.2,47.8,0.2,47.8z"/>
	<path class="st0" d="M34.4,47.8h7.2c0.1,0,0.2-0.1,0.2-0.2V28.7c0-6.3,5.1-11.5,11.5-11.5l0,0c0.9,0,1.8,0.1,2.7,0.2h0l0.4,0.1l0,0
		l0.4,0.1l0,0c0.7,0.2,1.5,0.5,2.2,0.9l0,0H59c0.6,0.3,1.2,0.7,1.8,1.1c0.5,0.3,0.9,0.7,1.3,1.1c0.1,0.1,0.3,0.1,0.4,0
		c0,0,0.1-0.1,0.1-0.1l1.9-7.3c0-0.2,0-0.4-0.2-0.5c-0.4-0.3-0.8-0.6-1.3-0.8l0,0c-2.9-1.6-6.2-2.5-9.5-2.5h-0.3
		c-4.1,0-8.2,1.3-11.5,3.8V9.8c0-0.1-0.1-0.2-0.2-0.2h-7.2c-0.1,0-0.2,0.1-0.2,0.2v37.8C34.2,47.7,34.2,47.8,34.4,47.8
		C34.4,47.8,34.4,47.8,34.4,47.8z"/>
</g>
</svg>
